<?xml version="1.0" standalone="no"?>
<!DOCTYPE svg PUBLIC "-//W3C//DTD SVG 1.1//EN" "http://www.w3.org/Graphics/SVG/1.1/DTD/svg11.dtd" >
<svg xmlns="http://www.w3.org/2000/svg">
<metadata></metadata>
<defs>
<font id="primerprint_bold" horiz-adv-x="1198" >
<font-face units-per-em="2048" ascent="1425" descent="-623" />
<missing-glyph horiz-adv-x="413" />
<glyph horiz-adv-x="0" />
<glyph unicode="&#xd;" horiz-adv-x="413" />
<glyph unicode=" "  horiz-adv-x="413" />
<glyph unicode="&#x09;" horiz-adv-x="413" />
<glyph unicode="&#xa0;" horiz-adv-x="413" />
<glyph unicode="!" horiz-adv-x="501" d="M109 135q0 59 40.5 102.5t98.5 43.5q61 0 103 -43.5t42 -102.5q0 -57 -42 -100t-99 -43q-61 0 -102 43t-41 100zM154 457v854q0 96 92 96q94 0 94 -96v-854q0 -92 -94 -92q-92 0 -92 92z" />
<glyph unicode="&#x22;" horiz-adv-x="845" d="M162 1051v260q0 96 92 96q94 0 94 -96v-260q0 -94 -94 -95q-92 0 -92 95zM492 1051v260q0 96 94 96q90 0 90 -96v-260q0 -94 -90 -95q-94 0 -94 95z" />
<glyph unicode="#" horiz-adv-x="1339" d="M82 442q0 94 92 95h158v346h-158q-92 0 -92 90q0 94 92 94h158v244q0 94 90 94q94 0 94 -94v-244h324v244q0 96 90 96q94 0 94 -96v-244h123q98 0 98 -94q0 -90 -98 -90h-123v-346h123q98 -1 98 -95q0 -92 -98 -92h-123v-262q0 -96 -94 -96q-90 0 -90 96v262h-324v-262 q0 -94 -94 -94q-90 0 -90 94v262h-158q-92 0 -92 92zM516 537h324v346h-324v-346z" />
<glyph unicode="$" horiz-adv-x="1081" d="M88 233q0 37 28.5 63t69.5 26q29 0 47.5 -19.5t32 -46.5t26.5 -56.5t30 -47.5v507q-184 100 -185 283q0 201 185 297v57q0 119 94 119q92 0 92 -125h70q0 123 94 123q31 0 49 -7t28.5 -26.5t13.5 -54.5t3 -92q160 -74 160 -211q0 -37 -28 -64.5t-67 -27.5q-45 0 -65 33 v-304q219 -126 219 -378q0 -246 -219 -349v-57q0 -109 -94 -108q-94 0 -94 110h-70q0 -115 -92 -115q-29 0 -47.5 5.5t-28.5 21.5t-14 48t-4 85q-43 27 -85 62.5t-75 76.5t-53.5 85t-20.5 87zM297 926q0 -35 25 -54v134q-25 -43 -25 -80zM508 59q2 -2 14 -2q18 0 56 15v467 q-12 6 -30 13t-40 19v-512zM508 770q16 -4 33.5 -11t36.5 -18v361q-6 2 -25 2h-16q-25 0 -29 -2v-332zM766 162q33 51 33 129q0 82 -33 145v-274z" />
<glyph unicode="%" horiz-adv-x="1384" d="M143 86q0 27 17 53l821 1223q27 43 76 43q39 0 67.5 -27.5t28.5 -64.5q0 -25 -16 -53l-824 -1223q-31 -43 -73 -43q-37 0 -67 27.5t-30 64.5zM166 1133q0 57 21.5 106t59.5 85t88 56.5t105 20.5q53 0 102.5 -20.5t86.5 -57.5t58.5 -86t21.5 -104t-21.5 -104.5 t-58.5 -86.5t-87 -58.5t-106 -21.5q-57 0 -106 21.5t-86 58.5t-57.5 86t-20.5 105zM348 1133q0 -86 88 -86q86 0 86 86q0 84 -86 84q-88 0 -88 -84zM688 281q0 59 21.5 111t60.5 90t90 59.5t111 21.5q53 0 104 -21.5t91 -60.5t64.5 -90t24.5 -110q0 -55 -22.5 -107.5 t-61 -92.5t-91 -63.5t-109.5 -23.5q-59 0 -111.5 21.5t-90.5 60.5t-59.5 91t-21.5 114zM870 281q0 -98 101 -99q100 1 100 99q0 94 -100 94t-101 -94z" />
<glyph unicode="&#x26;" horiz-adv-x="1212" d="M102 412q0 203 283 424q-123 193 -123 251q0 63 20.5 120t57.5 100t87 68.5t110 25.5q305 0 305 -314q0 -137 -219 -296q43 -63 94 -133t108 -150q8 14 26.5 60t45.5 95.5t59.5 88.5t67.5 39q37 0 67.5 -25t30.5 -64q0 -8 -18.5 -49t-46 -95t-58 -111.5t-57.5 -96.5 l154 -205q23 -33 22 -63q0 -37 -25.5 -62.5t-64.5 -25.5q-37 0 -78 41q-2 2 -33.5 44t-89.5 124q-184 -205 -340 -205q-80 0 -150.5 34t-122.5 91t-82 132t-30 157zM285 412q0 -45 15 -87t43 -74t64.5 -51.5t79.5 -19.5q99 0 232 170q-43 57 -102.5 142.5t-137.5 195.5 q-195 -164 -194 -276zM449 1087q0 -33 75 -145q133 96 133 145q0 129 -120 130q-88 0 -88 -130z" />
<glyph unicode="'" horiz-adv-x="528" d="M162 1051v260q0 96 92 96t92 -96v-260q0 -94 -92 -95q-92 0 -92 95z" />
<glyph unicode="(" horiz-adv-x="643" d="M68 702q0 51 13 123t35.5 150t55.5 155.5t71 138t81 98.5t88 38q90 0 90 -92q0 -27 -29 -66q-221 -299 -221 -545q0 -233 154 -456q6 -8 20 -28.5t30.5 -45.5t29 -48.5t12.5 -35.5q0 -37 -28 -63.5t-64 -26.5q-33 0 -72 31q-59 57 -108.5 137t-84.5 169t-54 183t-19 184z " />
<glyph unicode=")" horiz-adv-x="643" d="M139 88q0 18 23 59q74 106 119 177t69.5 129.5t31.5 115t7 133.5q0 254 -174 486q-76 100 -76 129q0 90 94 90q35 0 70 -35q59 -61 108.5 -145t85 -174t55 -181.5t19.5 -169.5q0 -313 -192 -579q-92 -125 -146 -125q-39 0 -66.5 26.5t-27.5 63.5z" />
<glyph unicode="*" horiz-adv-x="897" d="M66 459q0 41 34 69l197 162l-197 164q-16 12 -25 26.5t-9 34.5q0 39 26.5 70t67.5 31q29 0 63 -23l131 -108v231q0 96 90 96q94 0 95 -96v-229l133 108q31 25 61 25q37 0 65.5 -28.5t28.5 -69.5q0 -23 -9 -39.5t-25 -28.5l-199 -164l199 -162q33 -20 32 -63 q0 -39 -28.5 -69.5t-69.5 -30.5q-37 0 -55 20l-133 109v-248q0 -92 -95 -92q-90 0 -90 92v252l-135 -109q-31 -25 -59 -24q-37 0 -65.5 28.5t-28.5 65.5z" />
<glyph unicode="+" horiz-adv-x="950" d="M31 698q0 94 92 95h256v264q0 88 98 88q90 0 90 -88v-264h254q94 -1 94 -95t-94 -94h-254v-242q0 -88 -90 -88q-98 0 -98 88v242h-256q-92 0 -92 94z" />
<glyph unicode="," horiz-adv-x="524" d="M139 -37q0 25 14.5 35t14.5 25q0 12 -4 29.5t-10.5 38t-10.5 37.5t-4 30q0 57 42 99t100 42q66 0 102.5 -45t36.5 -111v-26q-4 -37 -22.5 -74t-48.5 -65.5t-64.5 -47t-69.5 -18.5q-76 0 -76 51z" />
<glyph unicode="-" d="M158 698q0 94 88 95h702q90 -1 90 -95t-90 -94h-702q-88 0 -88 94z" />
<glyph unicode="." horiz-adv-x="524" d="M121 135q0 59 41 102.5t98 43.5q59 0 102.5 -43.5t43.5 -102.5q0 -57 -43.5 -100t-100.5 -43q-59 0 -100 43t-41 100z" />
<glyph unicode="/" horiz-adv-x="980" d="M16 88q0 29 15 49l766 1225q12 23 27.5 33t43.5 10q37 0 67 -28.5t30 -69.5q0 -25 -15 -45l-762 -1221q-31 -43 -73 -43q-37 0 -68 26.5t-31 63.5z" />
<glyph unicode="0" horiz-adv-x="1320" d="M115 702q0 141 40 268.5t112.5 222.5t173 151.5t221.5 56.5q119 0 218 -56.5t170.5 -151.5t112.5 -222.5t41 -268.5q0 -139 -39 -266t-109.5 -224t-171 -155.5t-222.5 -58.5q-119 0 -219.5 55.5t-173 150.5t-113.5 223t-41 275zM299 702q0 -104 25.5 -199t72.5 -167 t114 -114t151 -42q80 0 145 40t113.5 110.5t74 165.5t25.5 206q0 113 -26.5 207.5t-75 163t-114 106.5t-142.5 38q-86 0 -154 -43.5t-114 -114t-70.5 -163.5t-24.5 -194z" />
<glyph unicode="1" horiz-adv-x="536" d="M166 88v1223q0 94 94 94q90 0 90 -94v-1223q0 -94 -90 -94q-94 0 -94 94z" />
<glyph unicode="2" horiz-adv-x="1013" d="M129 68q0 33 23 69l436 717q33 53 51 101.5t18 95.5q0 84 -37.5 125t-121.5 41q-66 0 -99.5 -17.5t-51 -42t-24 -55.5t-14.5 -55.5t-25.5 -42t-56.5 -17.5q-90 0 -90 94q0 68 32 126.5t82 101.5t114.5 67.5t132.5 24.5q76 0 140 -22.5t112.5 -64.5t76 -102.5t27.5 -136.5 q0 -152 -102 -319l-355 -576h424q92 0 92 -92q0 -90 -92 -90h-594q-98 0 -98 70z" />
<glyph unicode="3" horiz-adv-x="1046" d="M111 393q0 98 94 99q92 0 92 -95q0 -47 16.5 -86t45 -68.5t67.5 -46t82 -16.5t83 16.5t68.5 46t46 68.5t17.5 86q0 43 -17.5 81t-47 65.5t-68.5 44t-82 16.5q-88 0 -88 94t90 95q94 0 158.5 59t64.5 154q0 43 -16.5 81.5t-46 67.5t-67.5 45.5t-81 16.5q-78 0 -135 -44.5 t-82 -166.5q-16 -78 -88 -78q-96 0 -96 92q0 80 33.5 149.5t89 120.5t128 81t150.5 30q80 0 151.5 -31t127 -85t87.5 -129t32 -163q0 -184 -146 -299q133 -127 133 -297q0 -84 -30.5 -156.5t-84 -126t-126 -85t-158.5 -31.5q-84 0 -156.5 30.5t-126 84t-84 125t-30.5 155.5z " />
<glyph unicode="4" horiz-adv-x="1058" d="M53 702v609q0 96 92 96t93 -96v-518h424v518q0 96 94 96q92 0 92 -96v-518q96 -1 96 -95t-96 -94v-516q0 -96 -92 -96q-94 0 -94 96v516h-517q-92 0 -92 98z" />
<glyph unicode="5" horiz-adv-x="1116" d="M147 322q0 41 29 66.5t70 25.5q59 0 88 -66q23 -55 48.5 -88t54 -50t60 -23.5t66.5 -6.5q51 0 96.5 19.5t79 51.5t53 76t19.5 93q0 61 -19.5 117.5t-53 99.5t-80 68.5t-99.5 25.5t-105.5 -29.5t-97.5 -64.5t-77.5 -64.5t-47.5 -29.5q-80 0 -79 108v660q0 90 90 90h663 q96 0 96 -90q0 -94 -96 -94h-571v-361q106 63 219 64q92 0 173 -40t140.5 -107.5t94 -159t34.5 -193.5q0 -86 -32.5 -162t-90 -134t-135.5 -92t-166 -34q-76 0 -151.5 26.5t-136 70.5t-98.5 102.5t-38 124.5z" />
<glyph unicode="6" horiz-adv-x="1036" d="M82 449q0 199 94 394t287 398q154 164 209 164q39 0 66.5 -28.5t27.5 -65.5t-32 -68t-95 -88q-86 -78 -151.5 -157.5t-112.5 -157.5q55 16 119 16q92 0 174 -34t143 -90t97 -129.5t36 -153.5t-35 -160t-93 -144.5t-133 -105.5t-155 -41q-98 0 -181 32.5t-141.5 91 t-91 141.5t-32.5 186zM266 459q0 -129 70 -204t192 -75q45 0 87 23.5t75 60.5t52.5 82t19.5 88q0 45 -22.5 89t-58.5 77t-82 53.5t-93 20.5t-90 -17.5t-76 -46t-53.5 -68.5t-20.5 -83z" />
<glyph unicode="7" horiz-adv-x="1067" d="M125 1311q0 90 98 90h725q103 0 103 -74q0 -37 -21 -63l-727 -1223q-14 -23 -34.5 -33t-41.5 -10q-37 0 -67.5 26.5t-30.5 63.5q0 25 10 49l645 1080h-561q-98 0 -98 94z" />
<glyph unicode="8" horiz-adv-x="987" d="M106 365q0 143 240 413q-170 139 -170 309q0 68 23.5 126.5t65.5 99.5t100.5 64.5t126.5 23.5q252 0 327 -248q2 -14 4 -25.5t2 -17.5q0 -25 -8 -35l-213 -268q273 -211 273 -424q0 -78 -31 -147.5t-84 -124t-125 -86t-152 -31.5t-149.5 28.5t-120.5 79t-80 118 t-29 145.5zM295 348q0 -37 16.5 -67.5t43 -53t61.5 -35t71 -12.5q39 0 76 15.5t65.5 42t45 61.5t16.5 76q0 133 -203 297q-193 -211 -192 -324zM362 1090q0 -90 95 -170l168 217q-47 80 -133 80q-51 0 -90.5 -38t-39.5 -89z" />
<glyph unicode="9" horiz-adv-x="1064" d="M111 995q0 86 33.5 160t91 129t132 86t156.5 31q84 0 159 -32t130 -87t88 -130t33 -159v-905q0 -94 -92 -94q-94 0 -94 94v563q-102 -66 -226 -65q-86 0 -160.5 32.5t-130 88t-88 130t-32.5 158.5zM299 993q0 -47 17.5 -87t48 -70.5t70.5 -48t87 -17.5t88 17.5t72 47 t48.5 70.5t17.5 88q0 45 -17.5 86t-48.5 72t-72 48.5t-86 17.5q-47 0 -88 -17.5t-71.5 -47.5t-48 -71t-17.5 -88z" />
<glyph unicode=":" horiz-adv-x="542" d="M129 135q0 59 41 102.5t98 43.5q59 0 102.5 -43.5t43.5 -102.5q0 -57 -43 -100t-101 -43q-59 0 -100 43t-41 100zM129 608q0 57 41 101.5t98 44.5q59 0 102.5 -43.5t43.5 -102.5q0 -57 -43 -100t-101 -43q-59 0 -100 42t-41 101z" />
<glyph unicode=";" horiz-adv-x="522" d="M121 102q0 57 40 98.5t99 41.5q57 0 98 -41t41 -99v-43q0 -37 -19.5 -72.5t-48 -64t-61 -47t-59.5 -18.5q-31 0 -52.5 23.5t-21.5 58.5v10q-2 -2 -6 -2l8 8l-2 -6q10 4 10 16t-4 29.5t-9 38t-9 39t-4 30.5zM135 608q0 57 41 101.5t100 44.5q57 0 100.5 -43.5t43.5 -102.5 q0 -57 -42 -100t-102 -43q-59 0 -100 42t-41 101z" />
<glyph unicode="&#x3c;" horiz-adv-x="1302" d="M100 702q0 37 52 76l905 608q18 20 51 21q37 0 63.5 -29.5t26.5 -70.5q0 -45 -39 -72l-788 -533l788 -534q20 -14 28.5 -34t10.5 -40q0 -41 -26.5 -70.5t-67.5 -29.5q-27 0 -47 14l-905 615q-51 33 -52 79z" />
<glyph unicode="=" horiz-adv-x="1204" d="M160 842q0 92 92 92h704q88 0 88 -92q0 -94 -88 -94h-704q-92 0 -92 94zM162 539q0 94 90 94h704q86 0 86 -94t-86 -95h-704q-90 0 -90 95z" />
<glyph unicode="&#x3e;" horiz-adv-x="1263" d="M152 92q0 45 43 76l784 534l-784 531q-43 27 -43 78q0 37 26.5 66.5t63.5 29.5q35 0 55 -21l905 -608q51 -39 51 -76q0 -47 -51 -79l-905 -615q-29 -16 -55 -16q-37 0 -63.5 29.5t-26.5 70.5z" />
<glyph unicode="?" horiz-adv-x="921" d="M72 1169q0 29 20 56q113 174 342 174q416 0 416 -420q0 -70 -21.5 -111t-54.5 -69.5t-72.5 -52t-74.5 -56.5t-62.5 -84t-36.5 -133q-12 -117 -94 -117q-94 0 -94 99q0 72 7 122t31.5 95t72 92t129.5 113q86 68 86 147q0 188 -232 188q-49 0 -90 -21.5t-74.5 -48 t-59.5 -48t-42 -21.5q-37 0 -66.5 28.5t-29.5 67.5zM297 135q0 59 41 102.5t98 43.5q61 0 103.5 -43.5t42.5 -102.5q0 -57 -42 -100t-100 -43q-61 0 -102 43t-41 100z" />
<glyph unicode="@" horiz-adv-x="1632" d="M117 698q0 152 57 282t154.5 225t228.5 148.5t279 53.5q152 0 279.5 -55.5t219.5 -150.5t144.5 -226t52.5 -281q0 -106 -26.5 -194t-75 -152.5t-117 -100.5t-154.5 -36q-102 0 -149 37t-47 112q-84 -86 -201 -86q-180 0 -271.5 106.5t-91.5 287.5q0 84 29 157.5t81 128 t122.5 86t156.5 31.5q98 0 183 -92v10q0 82 90 82q94 0 94 -92v-520q0 -55 19 -56q78 0 126 75t48 190q0 43 -9.5 92t-22.5 94t-26.5 81t-19.5 50q-29 55 -74 98t-102.5 74t-122 46.5t-131.5 15.5q-111 0 -208 -40t-171 -111t-116 -168t-42 -210q0 -92 26.5 -180t82 -157.5 t137.5 -114.5t192 -50q70 -4 110 -10t59.5 -15t24.5 -22.5t5 -27.5q0 -59 -35 -89t-131 -30q-143 0 -264 57.5t-208 154.5t-136 225t-49 267zM592 672q0 -92 52 -152.5t140 -60.5q78 0 130.5 57.5t52.5 155.5q0 88 -48.5 150.5t-134.5 62.5q-88 0 -140 -62.5t-52 -150.5z " />
<glyph unicode="A" horiz-adv-x="1284" d="M66 88q0 18 8 37l497 1218q29 78 88 78q25 0 48.5 -19.5t40.5 -58.5l456 -1220q8 -14 8 -37q0 -37 -30.5 -64.5t-71.5 -27.5q-35 0 -53.5 15.5t-28.5 43.5l-151 412h-457l-168 -412q-12 -29 -35.5 -42t-48.5 -13q-39 0 -70.5 25.5t-31.5 64.5zM494 653h313l-148 400z" />
<glyph unicode="B" horiz-adv-x="1384" d="M166 88v1223q0 90 90 90h629q78 0 143.5 -35t113.5 -90t75.5 -126t27.5 -144q0 -195 -151 -316q151 -117 151 -297q0 -70 -27.5 -140.5t-75.5 -126.5t-113.5 -92t-143.5 -36h-629q-90 0 -90 90zM350 180h520q37 0 72 18.5t60.5 48t41 67.5t15.5 79q0 45 -19.5 84 t-51.5 67.5t-73 46t-84 17.5h-239q-20 -2 -40 -3t-36 -1h-166v-424zM350 793h522q39 0 73 18t59.5 49t40 69t14.5 77q0 37 -14.5 73.5t-39 67.5t-57.5 50.5t-71 19.5h-527v-424z" />
<glyph unicode="C" horiz-adv-x="1419" d="M106 705q0 145 57.5 272t154 221t225.5 148.5t270 54.5q70 0 153 -18.5t155.5 -50.5t120.5 -74t48 -89q0 -39 -27.5 -66.5t-64.5 -27.5q-10 0 -24.5 5t-34.5 20q-178 117 -326 117q-109 0 -203 -41t-164.5 -111t-110.5 -164t-40 -199q0 -104 39 -198t108.5 -166 t164.5 -115t206 -43q164 0 326 119q41 23 59 23q92 0 92 -91q0 -51 -50 -94t-124 -73.5t-156.5 -48t-146.5 -17.5q-147 0 -276 55.5t-224.5 150.5t-151 224t-55.5 277z" />
<glyph unicode="D" horiz-adv-x="1386" d="M166 88v1223q0 90 94 90h318q143 0 271 -55.5t224 -149.5t152.5 -222.5t56.5 -271.5q0 -141 -53 -269t-147.5 -225t-222.5 -153.5t-277 -56.5h-322q-94 0 -94 90zM354 180h228q106 0 200.5 42t165 113t111.5 165t41 196q0 106 -42 201.5t-113 166.5t-166 112t-201 41 h-224v-1037z" />
<glyph unicode="E" horiz-adv-x="1079" d="M166 88v1223q0 90 94 90h625q92 0 92 -90q0 -94 -92 -94h-531v-424h402q94 0 94 -95q0 -94 -94 -94h-402v-424h531q92 0 92 -92q0 -90 -92 -90h-625q-94 0 -94 90z" />
<glyph unicode="F" horiz-adv-x="987" d="M166 88v1223q0 90 90 90h629q92 0 92 -90q0 -94 -92 -94h-535v-424h404q96 0 96 -95q0 -94 -96 -94h-404v-516q0 -94 -90 -94q-94 0 -94 94z" />
<glyph unicode="G" horiz-adv-x="1622" d="M115 702q0 145 56 273.5t152.5 222.5t224.5 148.5t271 54.5q74 0 159 -22.5t157.5 -57.5t122 -78t49.5 -84q0 -37 -29 -67.5t-66 -30.5l-40 25q-39 24 -98.5 52.5t-128 53.5t-126.5 25q-106 0 -199.5 -41t-164 -112t-111.5 -164t-41 -198q0 -106 42 -201t112.5 -166 t166 -113t201.5 -42q94 0 179.5 33t153 89t114.5 134t63 168h-516q-94 0 -94 94t94 95h615q94 -1 94 -91q0 -143 -56.5 -272t-151.5 -225t-222 -153.5t-271 -57.5q-147 0 -276 55t-226.5 150.5t-153.5 225.5t-56 277z" />
<glyph unicode="H" horiz-adv-x="1316" d="M166 88v1223q0 94 94 94q90 0 90 -94v-518h608v518q0 94 95 94q94 0 94 -94v-1223q0 -94 -94 -94t-95 94v516h-608v-516q0 -94 -90 -94q-94 0 -94 94z" />
<glyph unicode="I" horiz-adv-x="694" d="M129 88q0 49 29.5 70.5t89.5 21.5v1037q-119 0 -119 94q0 90 94 90h240q96 0 96 -90q0 -94 -123 -94v-1037q123 0 123 -92q0 -90 -96 -90h-240q-94 0 -94 90z" />
<glyph unicode="J" horiz-adv-x="1146" d="M8 309q0 37 29 63.5t65 26.5q47 0 80 -45q131 -174 301 -174q63 0 122 26.5t105 72t73.5 105.5t27.5 130v797q0 94 94 94t94 -94v-797q0 -102 -42 -196.5t-113.5 -166t-165.5 -114.5t-201 -43q-57 0 -138 23.5t-154.5 64.5t-125 99.5t-51.5 127.5z" />
<glyph unicode="K" horiz-adv-x="1245" d="M166 88v1223q0 94 94 94q90 0 90 -94v-424l590 497q33 23 55 23q39 0 67 -29.5t28 -70.5q0 -33 -31 -66l-653 -539l653 -542q31 -31 31 -68q0 -39 -27 -66.5t-64 -27.5q-27 0 -59 22l-590 494v-426q0 -94 -90 -94q-94 0 -94 94z" />
<glyph unicode="L" horiz-adv-x="985" d="M166 88v1223q0 94 94 94q90 0 90 -94v-1131h535q92 0 92 -92q0 -90 -92 -90h-629q-90 0 -90 90z" />
<glyph unicode="M" horiz-adv-x="1769" d="M166 88v1223q0 108 81 108h1q68 0 94 -63l549 -1061l536 1061q27 63 91 63q84 0 84 -108v-1223q0 -96 -93 -96q-94 0 -94 96v832l-442 -875q-34 -65 -81 -65h-1q-51 0 -86 65l-455 877v-834q0 -94 -90 -94q-94 0 -94 94z" />
<glyph unicode="N" horiz-adv-x="1320" d="M166 88v1223q0 110 79 110h1q49 0 90 -59l629 -963v912q0 94 94 94t94 -94v-1223q0 -108 -81 -108h-1q-53 0 -92 61l-631 958v-911q0 -96 -92 -96q-90 0 -90 96z" />
<glyph unicode="O" horiz-adv-x="1566" d="M145 709q0 127 51.5 252.5t138.5 226t203.5 163t245.5 62.5t245 -62.5t203 -163t138 -226t51 -252.5q0 -135 -52 -263.5t-139 -226.5t-203 -158.5t-243 -60.5q-129 0 -244.5 60.5t-202.5 158.5t-139.5 226t-52.5 264zM322 709q0 -104 37.5 -200.5t102 -170.5t147.5 -118 t173 -44q88 0 172 43t149.5 117t104.5 170.5t39 202.5q0 92 -36.5 186t-100 169t-148.5 123t-180 48q-94 0 -178 -47t-146.5 -123t-99 -170t-36.5 -186z" />
<glyph unicode="P" horiz-adv-x="1269" d="M166 88v1223q0 90 94 90h627q80 0 145.5 -35t112.5 -91t73.5 -126.5t26.5 -142.5t-22.5 -134.5t-64.5 -113.5t-99.5 -88t-124.5 -56q-37 -10 -47 -10h-533v-516q0 -94 -94 -94t-94 94zM354 793h518q39 0 74 19t59.5 50t39 69t14.5 75t-14.5 74.5t-39 68.5t-57.5 49.5 t-69 18.5h-525v-424z" />
<glyph unicode="Q" horiz-adv-x="1660" d="M115 702q0 143 56 270.5t152.5 222.5t224.5 150.5t271 55.5q141 0 269.5 -54.5t225.5 -147.5t153.5 -221t56.5 -276q0 -238 -146 -432l117 -116q16 -16 22.5 -34t10.5 -34q0 -37 -29 -62.5t-65 -25.5q-41 0 -66 25l-121 114q-193 -139 -428 -139q-147 0 -275 55.5 t-223.5 150.5t-150.5 223t-55 275zM303 702q0 -113 41 -209t110.5 -165.5t164 -108.5t200.5 -39q156 0 289 94q-109 109 -109 148q0 37 29 64.5t62 27.5q41 0 149 -108q100 130 100 296q0 102 -41 195.5t-111.5 164.5t-165.5 113t-204 42q-98 0 -191.5 -40t-165 -109 t-114.5 -163t-43 -203z" />
<glyph unicode="R" horiz-adv-x="1386" d="M166 88v1223q0 90 90 90h629q80 0 146.5 -35t113.5 -91t73.5 -126.5t26.5 -140.5q0 -80 -31.5 -154t-87 -129t-128 -88t-152.5 -33l377 -457q23 -33 22 -55q0 -39 -30.5 -68.5t-69.5 -29.5q-23 0 -37 9t-29 26l-471 575h-258v-516q0 -94 -90 -94q-94 0 -94 94zM350 793 h522q39 0 74 19t59.5 50t39 69t14.5 75t-14.5 73.5t-39 67.5t-57.5 50.5t-71 19.5h-527v-424z" />
<glyph unicode="S" horiz-adv-x="1015" d="M94 322q0 84 92 84q55 0 84 -72q57 -162 224 -162q47 0 91 14.5t77.5 40t54 61.5t20.5 77q0 68 -42 128t-103.5 118.5t-135 115.5t-135 117.5t-103.5 125t-42 138.5q0 61 26.5 115.5t73 96.5t105.5 66.5t125 24.5q51 0 106.5 -20.5t101.5 -54t74.5 -78t28.5 -91.5 q0 -88 -90 -88q-27 0 -48.5 24.5t-47 53.5t-57 53.5t-76.5 24.5q-53 0 -98.5 -29.5t-45.5 -81.5q0 -88 146 -204q119 -98 186.5 -154.5t81.5 -71.5q145 -151 145 -329q0 -80 -31.5 -147.5t-88 -117t-133 -76t-166.5 -26.5q-68 0 -138.5 25.5t-129 70.5t-95.5 103.5 t-37 124.5z" />
<glyph unicode="T" horiz-adv-x="1218" d="M51 1311q0 90 92 90h930q92 0 92 -90q0 -94 -92 -94h-371v-1129q0 -96 -94 -96q-92 0 -92 96v1129h-373q-92 0 -92 94z" />
<glyph unicode="U" horiz-adv-x="1333" d="M145 514v797q0 94 95 94q94 0 94 -94v-797q0 -72 27.5 -133.5t73.5 -105.5t106.5 -69.5t124.5 -25.5q72 0 133 28t106 74t70.5 106.5t25.5 125.5v797q0 96 89 96q94 0 94 -96v-797q0 -104 -42 -198.5t-113 -166t-164 -113.5t-197 -42t-199.5 42t-167.5 112.5t-114 165 t-42 200.5z" />
<glyph unicode="V" horiz-adv-x="1277" d="M63 1317q0 37 30 62.5t67 25.5q59 0 82 -62l409 -997l373 997q20 57 86 58q37 0 67.5 -23.5t30.5 -64.5q0 -8 -6 -35l-461 -1225q-29 -73 -86 -73h-2q-57 0 -88 73l-497 1225q-2 12 -3.5 20.5t-1.5 18.5z" />
<glyph unicode="W" horiz-adv-x="2375" d="M137 1317q0 37 30 62.5t66 25.5q61 0 86 -62l406 -997l377 997q29 78 86 78t88 -78l405 -997l373 997q10 29 32.5 43.5t51.5 14.5q39 0 69.5 -25.5t30.5 -62.5q0 -8 -6 -35l-463 -1221q-31 -77 -87 -77h-1q-57 0 -86 71l-405 1000l-373 -998q-35 -73 -89 -73h-1 q-55 0 -88 73l-494 1225q-8 18 -8 39z" />
<glyph unicode="X" horiz-adv-x="1411" d="M154 88q0 27 18 55l406 570l-406 542q-18 27 -18 58q0 37 28.5 65.5t65.5 28.5q43 0 74 -43l362 -516l397 520q29 39 72 39q41 0 70.5 -28.5t29.5 -67.5q0 -35 -20 -56l-426 -542l426 -570q20 -20 20 -57t-28.5 -65.5t-69.5 -28.5q-25 0 -41 10t-33 33l-397 547 l-362 -547q-16 -23 -35 -33t-35 -10q-41 0 -69.5 29.5t-28.5 66.5z" />
<glyph unicode="Y" horiz-adv-x="1224" d="M59 1313q0 37 31 64.5t68 27.5q43 0 73 -41l377 -508l383 512q31 39 70 39q41 0 70.5 -28.5t29.5 -65.5t-20 -58l-443 -587v-580q0 -94 -94 -94q-90 0 -90 94v580l-434 587q-20 27 -21 58z" />
<glyph unicode="Z" horiz-adv-x="1259" d="M123 72q0 27 22 67l725 1096h-651q-90 0 -90 86q0 90 90 90h819q99 0 99 -68q0 -20 -7.5 -35.5t-19.5 -33.5l-721 -1098h649q86 0 86 -88t-86 -88h-819q-96 0 -96 72z" />
<glyph unicode="\" horiz-adv-x="987" d="M16 1307q0 41 31 69.5t70 28.5q43 0 71 -43l766 -1225q13 -22 13 -49q0 -37 -30 -63.5t-67 -26.5q-29 0 -45 10t-28 33l-766 1221q-14 20 -15 45z" />
<glyph unicode="^" horiz-adv-x="1124" d="M78 784q0 41 28 70l363 465q45 57 90 57q20 0 45 -14t47 -43l365 -465q26 -33 26 -72q0 -45 -35.5 -77.5t-84.5 -32.5q-55 0 -86 41l-277 352l-274 -352q-33 -41 -88 -41q-49 0 -84 32.5t-35 79.5z" />
<glyph unicode="_" horiz-adv-x="1193" d="M158 -238q0 94 94 95h688q94 -1 94 -95t-94 -94h-688q-94 0 -94 94z" />
<glyph unicode="`" horiz-adv-x="563" d="M41 1761h250l188 -252h-188z" />
<glyph unicode="a" horiz-adv-x="1038" d="M115 391q0 82 29.5 156t80.5 128t122 86t155 32q98 0 182 -91q0 45 21.5 67t70.5 22q94 0 94 -89v-614q0 -96 -88 -96q-41 0 -69.5 28.5t-28.5 67.5q-84 -90 -182 -90q-84 0 -155 30.5t-122 83t-80.5 124t-29.5 155.5zM305 393q0 -88 53.5 -149.5t141.5 -61.5 q86 0 134 61.5t48 149.5q0 92 -48 151.5t-134 59.5q-88 0 -141.5 -59.5t-53.5 -151.5z" />
<glyph unicode="b" horiz-adv-x="948" d="M166 88v1223q0 94 94 94t94 -94v-559q78 41 176 41q82 0 154 -32t124 -87.5t82 -128t30 -154.5t-30 -153.5t-82 -125t-124 -84t-154 -30.5q-106 0 -184 45q-25 -51 -86 -51q-94 0 -94 96zM354 371q0 -37 13.5 -72t38 -61.5t56.5 -42t68 -15.5q88 0 142.5 62.5t54.5 150.5 q0 92 -54.5 151.5t-142.5 59.5q-37 0 -69.5 -14.5t-56 -40t-37 -60t-13.5 -73.5v-45z" />
<glyph unicode="c" horiz-adv-x="913" d="M117 393q0 86 25.5 159t73.5 126t116.5 84t152.5 31q39 0 92.5 -13.5t100.5 -38t81 -60.5t34 -79q0 -37 -28 -69.5t-67 -32.5q-12 0 -33.5 16t-50 34.5t-62.5 35t-67 16.5q-88 0 -135 -58.5t-47 -150.5q0 -94 48 -149.5t128 -55.5q31 0 65 15.5t64.5 33t54 33t33.5 15.5 q37 0 66 -30t29 -67q0 -41 -31 -74.5t-76 -60t-99.5 -41t-99.5 -14.5q-84 0 -152.5 29.5t-116.5 83t-73.5 125t-25.5 157.5z" />
<glyph unicode="d" horiz-adv-x="948" d="M29 391q0 82 29.5 156t82 128t122 86t151.5 32q100 0 178 -41v559q0 94 92 94q94 0 94 -94v-1223q0 -96 -90 -96q-70 0 -88 51q-78 -45 -186 -45q-84 0 -155 30.5t-122 84t-79.5 125t-28.5 153.5zM217 393q0 -43 14.5 -82t41 -68.5t62.5 -46t79 -16.5q39 0 71.5 15.5 t57 42t38 61.5t13.5 72v45q0 78 -51 133t-129 55q-88 0 -142.5 -59.5t-54.5 -151.5z" />
<glyph unicode="e" horiz-adv-x="980" d="M117 391q0 86 28.5 159t79.5 127t121 85t152 31q63 0 130.5 -28t121 -74t88 -105.5t34.5 -122.5q0 -82 -94 -82h-473q16 -88 66.5 -144.5t126.5 -56.5q39 0 72.5 21.5t63.5 48t54.5 48t42.5 21.5q39 0 66.5 -28.5t27.5 -67.5q0 -41 -31.5 -82t-79.5 -72.5t-106.5 -51 t-109.5 -19.5q-84 0 -154 30.5t-120 84t-78.5 125t-28.5 153.5zM352 537h289q-48 73 -144 73h-3q-96 0 -142 -73z" />
<glyph unicode="f" horiz-adv-x="970" d="M71 685q5 17 23.5 26.5t54 12.5t97.5 3v315q0 72 26.5 137.5t73.5 116t110.5 80t137.5 29.5q53 0 114.5 -24.5t112.5 -65.5t85 -95.5t34 -115.5q0 -88 -90 -88t-90 88q0 27 -16.5 49.5t-42 38.5t-54.5 25.5t-53 9.5q-74 0 -121 -54.5t-47 -130.5v-315h125q92 0 92 -90 q0 -86 -92 -86h-125v-463q0 -90 -92 -90q-88 0 -88 90v463h-15q-10 0 -16 -2h-35q-114 0 -114 86q0 33 5 50z" />
<glyph unicode="g" horiz-adv-x="1034" d="M123 -354q0 37 31.5 62.5t68.5 25.5q43 0 74 -43q27 -41 46 -64.5t39.5 -36t47.5 -15.5t68 -3q88 0 140 61.5t52 149.5v268q-90 -53 -198 -53q-84 0 -152 30.5t-115 84t-73.5 125t-26.5 155.5q0 82 26.5 155t73.5 127t115 86t152 32q98 0 198 -91q0 88 94 89q92 0 93 -89 v-919q0 -82 -29 -154.5t-80 -127t-119.5 -86t-150.5 -31.5q-279 0 -367 223q-8 16 -8 39zM311 393q0 -88 48.5 -150.5t134.5 -62.5t140 62.5t54 150.5q0 92 -54 153.5t-140 61.5t-134.5 -61.5t-48.5 -153.5z" />
<glyph unicode="h" horiz-adv-x="892" d="M166 88v1223q0 94 86 94q88 0 88 -94v-566q72 39 160 39q78 0 142.5 -28.5t110.5 -78.5t71.5 -115.5t25.5 -139.5v-334q0 -90 -88 -90t-88 90v334q0 78 -48 132t-126 54q-74 0 -116 -55t-42 -131v-275q0 -78 -16 -113.5t-74 -35.5q-86 0 -86 90z" />
<glyph unicode="i" horiz-adv-x="493" d="M117 1036q0 51 36.5 85t88.5 34q123 0 123 -119q0 -123 -123 -123q-51 0 -88 34t-37 89zM147 88v614q0 88 95 89q92 0 92 -89v-614q0 -94 -92 -94q-94 0 -95 94z" />
<glyph unicode="j" horiz-adv-x="927" d="M96 -266q0 39 29 62.5t65 23.5q25 0 46.5 -23.5t48 -51.5t62.5 -50.5t89 -22.5q78 0 125 54.5t47 130.5v827q0 84 88 84q86 0 86 -84v-827q0 -76 -24.5 -141.5t-69.5 -115t-109.5 -78t-142.5 -28.5q-246 0 -327 203q-12 20 -13 37zM578 1036q0 51 36.5 85t87.5 34 q123 0 123 -119q0 -123 -123 -123q-51 0 -87.5 34t-36.5 89z" />
<glyph unicode="k" horiz-adv-x="784" d="M166 88v1225q0 92 88 92t88 -92v-793l274 191q29 16 56 16q33 0 58.5 -27.5t25.5 -62.5q0 -45 -39 -72l-281 -200l281 -203q39 -31 39 -70q0 -35 -27 -63.5t-61 -28.5q-27 0 -50 16l-276 189v-117q0 -90 -88 -90t-88 90z" />
<glyph unicode="l" horiz-adv-x="536" d="M166 88v1223q0 94 94 94q90 0 90 -94v-1223q0 -94 -90 -94q-94 0 -94 94z" />
<glyph unicode="m" horiz-adv-x="1632" d="M166 88v643q0 88 90 88q49 0 70.5 -21.5t21.5 -66.5q78 90 182 90q178 0 287 -133q109 133 283 133q82 0 150.5 -31.5t119.5 -86t80 -127t29 -154.5v-334q0 -96 -93 -96q-90 0 -90 96v334q0 92 -55 151.5t-141 59.5t-136.5 -61.5t-50.5 -149.5v-336q0 -41 -28.5 -67.5 t-67.5 -26.5q-90 0 -90 96v334q0 92 -55.5 151.5t-141.5 59.5t-134 -61.5t-48 -149.5v-334q0 -96 -92 -96q-90 0 -90 96z" />
<glyph unicode="n" horiz-adv-x="1056" d="M166 88v643q0 88 90 88q49 0 70.5 -21.5t21.5 -66.5q78 90 182 90q82 0 153 -31.5t122 -86t79.5 -127t28.5 -154.5v-334q0 -94 -94 -94q-92 0 -92 94v334q0 92 -55.5 151.5t-141.5 59.5t-134 -61.5t-48 -149.5v-334q0 -96 -92 -96q-90 0 -90 96z" />
<glyph unicode="o" horiz-adv-x="987" d="M121 393q0 82 25.5 155t73.5 127t114.5 86t150.5 32t155 -32t122 -86t79.5 -127t28.5 -155q0 -80 -27.5 -152.5t-77.5 -126t-121 -85t-159 -31.5q-84 0 -150.5 29.5t-114.5 83t-73.5 125t-25.5 157.5zM305 393q0 -88 48 -150.5t134 -62.5t140.5 62.5t54.5 150.5 q0 92 -54.5 153.5t-140.5 61.5t-134 -61.5t-48 -153.5z" />
<glyph unicode="p" horiz-adv-x="948" d="M166 -524v1226q0 88 90 89q94 0 94 -89q84 90 185 91q82 0 152.5 -32t121.5 -87.5t81 -128t30 -154.5t-30 -153.5t-82 -125t-122 -84t-151 -30.5q-109 0 -185 43v-565q0 -90 -94 -90q-90 0 -90 90zM350 393q0 -88 49.5 -150.5t135.5 -62.5q88 0 142 62.5t54 150.5 q0 92 -54 153.5t-142 61.5q-86 0 -135.5 -61.5t-49.5 -153.5z" />
<glyph unicode="q" horiz-adv-x="942" d="M57 393q0 86 26 159t74 126t115.5 84t153.5 31q94 0 197 -91q0 45 21.5 67t72.5 22q90 0 90 -89v-919q0 -211 127 -211q63 0 83.5 28.5t32 64.5t29 64.5t72.5 28.5q84 0 84 -94q0 -61 -24.5 -112.5t-65.5 -88t-95.5 -58t-115.5 -21.5q-311 0 -311 399v268 q-90 -53 -197 -53q-86 0 -153.5 30.5t-115.5 84t-74 125t-26 155.5zM242 393q0 -88 49 -150.5t135 -62.5t139 62.5t53 150.5q0 92 -53 153.5t-139 61.5t-135 -61.5t-49 -153.5z" />
<glyph unicode="r" horiz-adv-x="811" d="M166 88v614q0 88 90 89q94 0 94 -89q61 90 152 91q59 0 111.5 -16.5t91 -46.5t61 -72t22.5 -93q0 -88 -90 -88q-35 0 -53 19.5t-34.5 44t-40 44t-68.5 19.5q-41 0 -70 -15.5t-47 -53t-26.5 -102t-8.5 -165.5v-180q0 -96 -94 -96q-90 0 -90 96z" />
<glyph unicode="s" horiz-adv-x="849" d="M119 227q0 39 28.5 62.5t65.5 23.5q35 0 55.5 -20.5t40 -46t47 -46t74.5 -20.5q57 0 89 14.5t32 53.5q0 27 -15.5 43t-39 25.5t-50 12.5t-47.5 7q-131 18 -196.5 83.5t-65.5 172.5q0 51 24.5 93t64.5 72.5t92.5 47t107.5 16.5q49 0 94 -13t80 -35.5t55.5 -51.5t20.5 -59 q0 -37 -23.5 -66t-60.5 -29q-16 0 -36.5 13.5t-42 29t-45.5 28.5t-48 13q-98 0 -98 -59q0 -16 3 -27.5t15 -19.5t35.5 -14.5t64.5 -14.5q150 -29 223.5 -92.5t73.5 -155.5q0 -270 -323 -270q-49 0 -101.5 18.5t-95.5 49t-70.5 72.5t-27.5 89z" />
<glyph unicode="t" horiz-adv-x="716" d="M37 698q0 94 94 95h129v192q0 90 90 90q98 0 99 -90v-192h139q94 -1 94 -95t-94 -94h-139v-516q0 -94 -99 -94q-90 0 -90 94v516h-129q-94 0 -94 94z" />
<glyph unicode="u" horiz-adv-x="1060" d="M139 393v309q0 88 94 89q94 0 95 -89v-309q0 -88 54 -150.5t142 -62.5q86 0 135.5 62.5t49.5 150.5v309q0 88 90 89q94 0 94 -89v-614q0 -94 -86 -94q-39 0 -68.5 27.5t-29.5 66.5q-84 -90 -185 -90q-86 0 -156.5 30.5t-120.5 85t-79 126t-29 153.5z" />
<glyph unicode="v" horiz-adv-x="958" d="M72 702q0 37 31.5 63t68.5 26q55 0 82 -52l231 -442l217 442q25 53 80 54q39 0 70 -27t31 -64q0 -23 -13 -43l-297 -610q-33 -69 -85 -69h-1q-49 0 -84 65l-321 614q-10 25 -10 43z" />
<glyph unicode="w" horiz-adv-x="1644" d="M106 702q0 37 31 63t68 26q57 0 84 -52l231 -442l217 442q35 72 84 72t86 -72l230 -442l219 442q25 53 80 54q41 0 68.5 -25.5t27.5 -62.5q0 -20 -10 -46l-297 -608q-35 -71 -87 -71h-1q-45 0 -80 65l-232 447l-217 -443q-31 -69 -84 -69h-2q-51 0 -86 65l-319 614 q-10 25 -11 43z" />
<glyph unicode="x" horiz-adv-x="1136" d="M160 698q0 39 29.5 67t66.5 28q43 0 70 -27l239 -242l246 242q27 27 66 27q37 0 65.5 -28t28.5 -67q0 -37 -29 -65l-246 -240l246 -239q31 -31 31 -68t-30 -64.5t-66 -27.5q-35 0 -64 29l-248 243l-243 -243q-29 -29 -66 -29t-65.5 28.5t-28.5 65.5t28 66l250 239 l-250 240q-31 29 -30 65z" />
<glyph unicode="y" horiz-adv-x="978" d="M145 702q0 39 30 65t71 26q53 0 82 -54l231 -442l217 442q25 53 84 54q37 0 66.5 -27t29.5 -64q0 -25 -8 -43l-608 -1230q-14 -27 -34.5 -39.5t-43.5 -12.5q-37 0 -68.5 29t-31.5 66q0 18 12 41l283 575l-299 571q-12 20 -13 43z" />
<glyph unicode="z" horiz-adv-x="1144" d="M158 72q0 39 43 82l456 450h-395q-94 0 -94 94t94 95h621q104 0 104 -76q0 -45 -39 -84l-461 -453h396q90 0 90 -92q0 -90 -90 -90h-621q-104 0 -104 74z" />
<glyph unicode="|" horiz-adv-x="536" d="M166 -276v1550q0 90 94 90t94 -90v-1550q0 -86 -94 -86t-94 86z" />
<glyph unicode="~" horiz-adv-x="1085" d="M135 1061q0 16 17 49q86 166 208 166q20 0 66.5 -18.5t95.5 -40t93 -39t65 -17.5q18 0 41.5 17.5t49.5 37t50.5 37t42.5 17.5q41 0 67.5 -26.5t26.5 -67.5q0 -35 -32.5 -70t-77.5 -63.5t-93 -47t-81 -18.5q-27 0 -64 19.5t-74.5 42t-70.5 42t-51 19.5q-31 0 -54.5 -19.5 t-44 -44t-42 -44t-46.5 -19.5q-37 0 -64.5 25.5t-27.5 62.5z" />
<glyph unicode="&#xa1;" horiz-adv-x="487" d="M102 913q0 59 42 102.5t102 43.5q57 0 100 -44.5t43 -101.5q0 -59 -43 -102t-104 -43q-55 0 -97.5 44t-42.5 101zM147 -203v854q0 88 93 88q92 0 92 -88v-854q0 -96 -92 -96t-93 96z" />
<glyph unicode="&#xa8;" horiz-adv-x="933" d="M147 1645q0 45 38 73.5t85 28.5t84 -28.5t37 -73.5q0 -47 -36 -75t-85 -28q-47 0 -85 27.5t-38 75.5zM543 1645q0 45 36.5 73.5t86.5 28.5q45 0 81.5 -28.5t36.5 -73.5q0 -47 -36.5 -75t-81.5 -28q-49 0 -86 27.5t-37 75.5z" />
<glyph unicode="&#xa9;" horiz-adv-x="1630" d="M106 711q0 147 56.5 277t153 227.5t226.5 152.5t277 55t277.5 -55t226.5 -152.5t152.5 -227.5t56.5 -277t-56.5 -276.5t-152.5 -226.5t-226 -153.5t-278 -56.5q-147 0 -277 56.5t-226.5 153.5t-153 226.5t-56.5 276.5zM190 709q0 -133 49.5 -248t135.5 -200t200.5 -134 t245.5 -49t247 49t202 134t136 199.5t50 248.5q0 131 -50 246.5t-136 202.5t-202 138.5t-247 51.5t-245.5 -51.5t-200.5 -138.5t-135.5 -202.5t-49.5 -246.5zM451 702q0 96 25.5 178.5t71.5 141.5t111.5 92t147.5 33q201 0 297 -170l-133 -90q-63 94 -164 94 q-88 0 -142.5 -73.5t-54.5 -205.5q0 -125 57.5 -202.5t143.5 -77.5q45 0 87 23.5t73 56.5l129 -86q-98 -160 -293 -160q-76 0 -140.5 34t-112.5 93t-75.5 141t-27.5 178z" />
<glyph unicode="&#xab;" horiz-adv-x="962" d="M106 696v152l400 209v-160l-264 -121l264 -123v-153zM485 696v152l400 209v-160l-260 -121l260 -123v-153z" />
<glyph unicode="&#xad;" d="M158 698q0 94 88 95h702q90 -1 90 -95t-90 -94h-702q-88 0 -88 94z" />
<glyph unicode="&#xae;" horiz-adv-x="1386" d="M121 907q0 111 43 209t119.5 173t182 118t230.5 43q127 0 234.5 -42t185.5 -114.5t122 -172t44 -214.5q0 -109 -45 -207t-123 -172.5t-185.5 -118.5t-232.5 -44t-230.5 44t-182 118.5t-119.5 173t-43 206.5zM227 907q0 -82 33 -161.5t93.5 -142t146.5 -100.5t194 -38 q100 0 190.5 33.5t158 93t107.5 140.5t40 175q0 80 -37 159t-102.5 141.5t-156.5 101.5t-200 39t-194.5 -39t-146 -101.5t-93.5 -141.5t-33 -159zM516 602v592h211q80 0 132 -50t52 -138q0 -61 -24.5 -98.5t-75.5 -71.5l104 -234h-122l-99 217h-63v-217h-115zM631 940h100 q59 0 60 66q0 68 -60 67h-100v-133z" />
<glyph unicode="&#xb4;" horiz-adv-x="565" d="M80 1509l188 252h254l-252 -252h-190z" />
<glyph unicode="&#xb8;" horiz-adv-x="501" d="M57 -248q20 -4 34.5 -5t19.5 -1q51 0 94 36t43 89q0 41 -29 61.5t-65 20.5q-16 0 -25 -2l125 203h65l-53 -91q140 -28 140 -163q0 -47 -20.5 -85t-55.5 -64.5t-79 -41t-89 -14.5q-23 0 -49.5 2t-55.5 6v49z" />
<glyph unicode="&#xbb;" horiz-adv-x="991" d="M135 500v157l262 125l-262 119v156l400 -197v-155zM514 500v157l262 125l-262 119v156l399 -197v-155z" />
<glyph unicode="&#xbf;" horiz-adv-x="925" d="M72 160q0 70 21.5 111.5t54 70.5t71.5 52.5t75 56t63.5 83t35.5 132.5q6 59 32 87.5t67 28.5q90 0 90 -98q0 -170 -82 -285q-8 -10 -47 -39.5t-82 -70.5t-77 -87t-34 -87q0 -188 232 -189q45 0 87 21.5t75.5 48.5t59 48.5t40.5 21.5q39 0 67.5 -29t28.5 -68 q0 -29 -19 -55q-113 -174 -339 -174q-420 0 -420 420zM340 948q0 57 44 99.5t101 42.5q59 0 101.5 -42t42.5 -100q0 -61 -42 -103t-102 -42q-59 0 -102 42t-43 103z" />
<glyph unicode="&#xc0;" horiz-adv-x="1259" d="M53 88q0 12 10 37l496 1218q29 78 88 78q55 0 90 -78l457 -1220q8 -14 8 -37q0 -37 -31.5 -64.5t-70.5 -27.5q-61 0 -84 59l-152 412h-456l-168 -412q-23 -55 -82 -55q-41 0 -73 25.5t-32 64.5zM403 1761h250l189 -252h-189zM483 653h314l-150 400z" />
<glyph unicode="&#xc1;" horiz-adv-x="1263" d="M51 88q0 18 8 37l498 1218q29 78 88 78q25 0 48.5 -19.5t39.5 -58.5l457 -1220q8 -14 8 -37q0 -37 -30.5 -64.5t-71.5 -27.5q-59 0 -82 59l-152 412h-456l-168 -412q-23 -55 -84 -55q-39 0 -71 25.5t-32 64.5zM459 1509l188 252h254l-250 -252h-192zM479 653h314 l-148 400z" />
<glyph unicode="&#xc2;" horiz-adv-x="1284" d="M63 88q0 18 9 37l495 1218q29 78 90 78q53 0 88 -78l457 -1220q8 -14 8 -37q0 -37 -31.5 -64.5t-70.5 -27.5q-61 0 -84 59l-152 412h-456l-168 -412q-23 -55 -82 -55q-41 0 -72 25.5t-31 64.5zM354 1522l166 233h299l168 -233h-194l-125 147l-123 -147h-191zM492 653h313 l-148 400z" />
<glyph unicode="&#xc3;" horiz-adv-x="1304" d="M74 88q0 18 8 37l498 1218q29 78 88 78q25 0 48 -19.5t40 -58.5l456 -1220q11 -17 11 -37q0 -37 -32 -64.5t-73 -27.5q-59 0 -82 59l-151 412h-457l-168 -412q-23 -55 -84 -55q-39 0 -70.5 25.5t-31.5 64.5zM317 1536q8 227 207 227q35 0 89.5 -19.5t108.5 -42t99 -42 t64 -19.5q78 0 102 123h35q0 -98 -54.5 -164.5t-154.5 -66.5q-33 0 -86 19.5t-106.5 42t-99.5 42t-64 19.5q-43 0 -65.5 -23.5t-37.5 -95.5h-37zM502 653h315l-149 400z" />
<glyph unicode="&#xc4;" horiz-adv-x="1277" d="M59 88q0 18 9 37l497 1218q29 78 88 78q25 0 48.5 -19.5t39.5 -58.5l457 -1220q10 -17 10 -37q0 -37 -31.5 -64.5t-72.5 -27.5q-59 0 -82 59l-152 412h-456l-168 -412q-23 -55 -84 -55q-39 0 -71 25.5t-32 64.5zM356 1645q0 45 37 73.5t86 28.5q45 0 83 -28.5t38 -73.5 q0 -47 -36 -75t-85 -28t-86 27.5t-37 75.5zM487 653h316l-150 400zM752 1645q0 45 36.5 73.5t83.5 28.5t84 -28.5t37 -73.5q0 -47 -36.5 -75t-84.5 -28q-47 0 -83.5 27.5t-36.5 75.5z" />
<glyph unicode="&#xc5;" horiz-adv-x="1304" d="M72 88q0 18 8 37l498 1218q10 27 22 44.5t31 25.5q-70 16 -115 70.5t-45 124.5q0 43 17.5 78.5t47 62.5t69.5 42t83 15t82 -15t68.5 -42t48 -63.5t18.5 -77.5t-16.5 -76t-44 -61.5t-62 -44t-73.5 -19.5q27 -18 45 -64l456 -1220q8 -14 9 -37q0 -37 -32 -64.5t-71 -27.5 q-35 0 -53.5 15.5t-28.5 43.5l-151 412h-457l-170 -412q-23 -55 -82 -55q-39 0 -70.5 25.5t-31.5 64.5zM500 653h313l-147 400zM549 1608q0 -55 41 -92t98 -37q53 0 95 37t42 92q0 53 -42 89t-95 36q-57 0 -98 -36t-41 -89z" />
<glyph unicode="&#xc6;" horiz-adv-x="1980" d="M94 88q0 18 8 37l498 1218q29 78 88 78q25 0 48.5 -19.5t39.5 -58.5l262 -700v668q0 90 95 90h626q90 0 90 -90q0 -94 -90 -94h-532v-424h403q94 0 94 -95q0 -94 -94 -94h-403v-424h532q90 0 90 -92q0 -90 -90 -90h-592q-84 2 -129 104l-133 363h-456l-168 -412 q-29 -55 -86 -55q-37 0 -69 25.5t-32 64.5zM520 653h314l-150 400z" />
<glyph unicode="&#xc7;" horiz-adv-x="1421" d="M117 705q0 145 57 272t154.5 221t225.5 148.5t271 54.5q74 0 158 -19.5t155.5 -52.5t119 -75t47.5 -85q0 -39 -28 -66.5t-65 -27.5q-10 0 -24 5t-35 20q-178 117 -328 117q-106 0 -200.5 -41t-164 -111t-110.5 -163t-41 -200q0 -104 39 -198t108.5 -167t164 -115 t204.5 -42q160 0 328 119q41 23 59 23q92 0 93 -91q0 -51 -52.5 -94t-127 -73.5t-157.5 -48t-143 -17.5h-18l-16 -27q143 -33 143 -166q0 -45 -20.5 -81.5t-55.5 -63.5t-79 -42t-89 -15q-23 0 -49.5 2t-58.5 4v49q8 -2 16 -3t18 -1h21q53 0 95 36t42 87q0 41 -29.5 63.5 t-68.5 22.5q-14 0 -23 -2l88 141q-133 12 -246.5 73.5t-197.5 156t-132 216t-48 257.5z" />
<glyph unicode="&#xc8;" horiz-adv-x="985" d="M121 88v1223q0 90 94 90h625q90 0 90 -90q0 -94 -90 -94h-531v-424h402q94 0 94 -95q0 -94 -94 -94h-402v-424h531q90 0 90 -92q0 -90 -90 -90h-625q-94 0 -94 90zM334 1761h252l188 -252h-188z" />
<glyph unicode="&#xc9;" horiz-adv-x="985" d="M123 88v1223q0 90 94 90h625q92 0 92 -90q0 -94 -92 -94h-531v-424h402q94 0 94 -95q0 -94 -94 -94h-402v-424h531q92 0 92 -92q0 -90 -92 -90h-625q-94 0 -94 90zM340 1509l188 252h254l-252 -252h-190z" />
<glyph unicode="&#xca;" horiz-adv-x="1009" d="M137 88v1223q0 90 94 90h625q92 0 92 -90q0 -94 -92 -94h-530v-424h401q94 0 94 -95q0 -94 -94 -94h-401v-424h530q92 0 92 -92q0 -90 -92 -90h-625q-94 0 -94 90zM238 1522l165 233h299l168 -233h-194l-125 147l-123 -147h-190z" />
<glyph unicode="&#xcb;" horiz-adv-x="1015" d="M139 88v1223q0 90 94 90h627q90 0 90 -90q0 -94 -90 -94h-532v-424h403q94 0 94 -95q0 -94 -94 -94h-403v-424h532q90 0 90 -92q0 -90 -90 -90h-627q-94 0 -94 90zM246 1645q0 45 36.5 73.5t86.5 28.5q45 0 81.5 -28.5t36.5 -73.5q0 -47 -35.5 -75t-82.5 -28 q-49 0 -86 27.5t-37 75.5zM639 1645q0 45 37 73.5t86 28.5q45 0 83 -28.5t38 -73.5q0 -47 -38 -75t-83 -28q-49 0 -86 27.5t-37 75.5z" />
<glyph unicode="&#xcc;" horiz-adv-x="622" d="M51 1761h252l191 -252h-191zM115 88q0 49 29.5 70.5t88.5 21.5v1037q-119 0 -118 94q0 90 94 90h240q96 0 96 -90q0 -94 -123 -94v-1037q123 0 123 -92q0 -90 -96 -90h-240q-94 0 -94 90z" />
<glyph unicode="&#xcd;" horiz-adv-x="667" d="M68 88q0 49 30.5 70.5t89.5 21.5v1037q-121 0 -120 94q0 90 94 90h241q96 0 97 -90q0 -94 -123 -94v-1037q123 0 123 -92q0 -90 -97 -90h-241q-94 0 -94 90zM186 1509l191 252h252l-252 -252h-191z" />
<glyph unicode="&#xce;" horiz-adv-x="882" d="M123 1522l168 233h301l168 -233h-195l-129 147l-119 -147h-194zM209 88q0 49 29.5 70.5t89.5 21.5v1037q-119 0 -119 94q0 90 94 90h240q96 0 96 -90q0 -94 -123 -94v-1037q123 0 123 -92q0 -90 -96 -90h-240q-94 0 -94 90z" />
<glyph unicode="&#xcf;" horiz-adv-x="753" d="M57 1645q0 45 36 73.5t83 28.5t85 -28.5t38 -73.5q0 -47 -37 -75t-86 -28q-45 0 -82 27.5t-37 75.5zM162 88q0 49 30.5 70.5t90.5 21.5v1037q-121 0 -121 94q0 90 94 90h242q96 0 96 -90q0 -94 -123 -94v-1037q123 0 123 -92q0 -90 -96 -90h-242q-94 0 -94 90zM449 1645 q0 45 36.5 73.5t85.5 28.5q45 0 82 -28.5t37 -73.5q0 -47 -37 -75t-82 -28q-49 0 -85.5 27.5t-36.5 75.5z" />
<glyph unicode="&#xd0;" horiz-adv-x="1521" d="M96 727q0 94 66 94h129v490q0 90 94 90h317q143 0 272.5 -54.5t224.5 -149.5t151.5 -222.5t56.5 -272.5q0 -143 -54.5 -271t-147.5 -224t-221 -152.5t-275 -56.5h-324q-94 0 -94 90v549h-129q-66 0 -66 90zM479 180h230q106 0 199 42t164 113t112 164t41 197 q0 106 -41 201.5t-112 166.5t-166 112t-204 41h-223v-396h180q66 0 66 -94q0 -90 -66 -90h-180v-457z" />
<glyph unicode="&#xd1;" horiz-adv-x="1269" d="M139 88v1223q0 111 80 110q51 0 92 -59l629 -963v912q0 94 94 94t94 -94v-1223q0 -109 -84 -108q-51 0 -90 61l-632 958v-911q0 -96 -91 -96q-92 0 -92 96zM281 1536q8 227 206 227q35 0 89.5 -19.5t108.5 -42t99 -42t64 -19.5q78 0 102 123h35q0 -98 -54 -164.5 t-155 -66.5q-33 0 -86 19.5t-106.5 42t-99.5 42t-64 19.5q-45 0 -68.5 -26.5t-34.5 -92.5h-36z" />
<glyph unicode="&#xd2;" horiz-adv-x="1437" d="M86 709q0 129 51 256t139.5 226t204 160.5t244.5 61.5t244.5 -62.5t203 -163t138.5 -226t51 -252.5q0 -135 -52.5 -263.5t-139.5 -226.5t-202.5 -158.5t-242.5 -60.5q-131 0 -247 60.5t-203 159.5t-138 227t-51 262zM262 709q0 -104 38 -200.5t101.5 -170.5t146.5 -118 t175 -44q88 0 172 43t149.5 117t104.5 170.5t39 202.5q0 92 -37 186t-100.5 169t-148.5 123t-179 48t-178 -47t-146.5 -123t-99.5 -170t-37 -186zM397 1761h250l189 -252h-189z" />
<glyph unicode="&#xd3;" horiz-adv-x="1437" d="M78 709q0 129 51 256t139 226t204 160.5t245 61.5t244.5 -62.5t202.5 -163t138.5 -226t51.5 -252.5q0 -133 -51.5 -261.5t-139.5 -227.5t-202.5 -159.5t-243.5 -60.5q-131 0 -247 60.5t-203 159.5t-138 227t-51 262zM254 709q0 -104 38 -200.5t101.5 -170.5t146.5 -118 t173 -44t175 44t149.5 118t103.5 170.5t39 200.5q0 92 -37 186t-100.5 169t-148.5 123t-181 48q-94 0 -178 -48t-146.5 -123t-98.5 -169t-36 -186zM563 1509l189 252h254l-252 -252h-191z" />
<glyph unicode="&#xd4;" horiz-adv-x="1452" d="M88 709q0 127 51 252.5t138.5 226t204 163t245.5 62.5t243.5 -61.5t203 -161.5t139.5 -226t51 -255q0 -133 -51 -261.5t-138.5 -227.5t-203 -159.5t-244.5 -60.5t-244.5 60.5t-202.5 158.5t-139.5 226t-52.5 264zM266 709q0 -104 38 -200.5t101.5 -170.5t146.5 -118 t173 -44q88 0 172 43t149.5 117t104.5 170.5t39 202.5q0 92 -37 186t-100.5 169t-148.5 123t-179 48t-178 -47t-146.5 -123t-98.5 -169t-36 -187zM399 1522l166 233h299l170 -233h-194l-127 147l-121 -147h-193z" />
<glyph unicode="&#xd5;" horiz-adv-x="1515" d="M117 709q0 127 51 252.5t138 226t204 163t246 62.5t243.5 -61.5t202.5 -161.5t139.5 -226t51.5 -255q0 -133 -51.5 -261.5t-138.5 -227.5t-202.5 -159.5t-244.5 -60.5t-245 60.5t-203 158.5t-139 226t-52 264zM295 709q0 -104 38 -200.5t101.5 -170.5t146.5 -118t173 -44 q88 0 172 43t149.5 117t104.5 170.5t39 202.5q0 92 -37 186t-100.5 169t-148.5 123t-179 48t-178 -47t-146.5 -123t-98.5 -169t-36 -187zM408 1536q8 227 208 227q35 0 89.5 -19.5t108.5 -42t99 -42t64 -19.5q74 0 102 123h35q0 -98 -54 -164.5t-155 -66.5q-33 0 -86 19.5 t-106.5 42t-99.5 42t-64 19.5q-45 0 -67.5 -23.5t-37.5 -95.5h-36z" />
<glyph unicode="&#xd6;" horiz-adv-x="1456" d="M88 709q0 127 51 252.5t138.5 226t204 163t245.5 62.5t243.5 -61.5t203 -161.5t139.5 -226t51 -255q0 -133 -51 -261.5t-138.5 -227.5t-203 -159.5t-244.5 -60.5t-244.5 60.5t-202.5 158.5t-139.5 226t-52.5 264zM266 709q0 -104 38 -200.5t101.5 -170.5t146.5 -118 t173 -44q88 0 172 43t149.5 117t104.5 170.5t39 202.5q0 92 -37 186t-100.5 169t-148.5 123t-179 48t-178 -47t-146.5 -123t-98.5 -169t-36 -187zM406 1645q0 45 36.5 73.5t85.5 28.5q45 0 82 -28.5t37 -73.5q0 -47 -34.5 -75t-84.5 -28q-49 0 -85.5 27.5t-36.5 75.5z M799 1645q0 45 36.5 73.5t86.5 28.5q45 0 82.5 -28.5t37.5 -73.5q0 -47 -37.5 -75t-82.5 -28q-49 0 -86 27.5t-37 75.5z" />
<glyph unicode="&#xd7;" horiz-adv-x="1136" d="M160 1155q0 39 29.5 66.5t66.5 27.5q43 0 70 -26l239 -242l246 242q27 27 66 26q37 0 65.5 -27.5t28.5 -66.5q0 -37 -29 -65l-246 -240l246 -240q31 -30 31 -67t-30 -64.5t-66 -27.5q-35 0 -64 28l-248 244l-243 -244q-29 -29 -66 -28q-37 0 -65.5 28.5t-28.5 65.5t28 65 l250 240l-250 240q-31 29 -30 65z" />
<glyph unicode="&#xd8;" horiz-adv-x="1581" d="M152 709q0 129 51 256t139 226t204 160.5t245 61.5q150 0 276 -74l14 23q27 43 72 43q37 0 68.5 -28.5t31.5 -69.5q0 -25 -14 -45l-25 -39l31 -35q182 -211 182 -479q0 -135 -52 -263.5t-139 -226.5t-202.5 -158.5t-242.5 -60.5q-162 0 -293 82l-25 -41q-25 -43 -74 -43 q-37 0 -66.5 26.5t-29.5 63.5q0 29 14 49l39 64l-20 24q-184 217 -184 484zM328 709q0 -199 125 -355l520 834q-85 47 -185 47q-94 0 -178 -47t-146.5 -123t-99 -170t-36.5 -186zM590 229q94 -53 201 -53q88 0 170.5 43t147.5 117t104.5 170.5t39.5 202.5q0 190 -137 358z " />
<glyph unicode="&#xd9;" horiz-adv-x="1259" d="M109 514v797q0 94 94 94t94 -94v-797q0 -72 27.5 -133.5t73.5 -105.5t106.5 -69.5t124.5 -25.5q72 0 133 28t106 74t71 106.5t26 125.5v797q0 96 88 96q94 0 94 -96v-797q0 -104 -42 -198.5t-112.5 -166t-164 -113.5t-197.5 -42t-199.5 42t-167 112.5t-113.5 165 t-42 200.5zM412 1761h250l188 -252h-188z" />
<glyph unicode="&#xda;" horiz-adv-x="1259" d="M106 514v797q0 94 95 94q94 0 94 -94v-797q0 -72 27.5 -133.5t73.5 -105.5t105.5 -69.5t123.5 -25.5q74 0 135 28t106 74t71 106.5t26 125.5v797q0 96 88 96q94 0 94 -96v-797q0 -104 -42 -199.5t-112.5 -166t-165 -112.5t-196.5 -42q-104 0 -199.5 42t-167.5 112.5 t-114 165t-42 200.5zM440 1509l189 252h254l-252 -252h-191z" />
<glyph unicode="&#xdb;" horiz-adv-x="1277" d="M117 514v797q0 94 94 94t94 -94v-797q0 -70 27.5 -130t74 -105.5t105.5 -72t125 -26.5q72 0 133 28t106.5 74t71 106.5t25.5 125.5v797q0 96 88 96q94 0 94 -96v-797q0 -104 -42 -198.5t-112.5 -166t-164 -113.5t-197.5 -42t-199.5 42t-167 112.5t-113.5 165t-42 200.5z M334 1522l166 233h299l168 -233h-193l-127 147l-123 -147h-190z" />
<glyph unicode="&#xdc;" horiz-adv-x="1282" d="M121 514v797q0 94 94 94t94 -94v-797q0 -72 28 -133.5t74 -105.5t105 -69.5t123 -25.5q70 0 132.5 26.5t107.5 73t71.5 106.5t26.5 128v797q0 96 88 96q94 0 94 -96v-797q0 -104 -42 -199.5t-112.5 -166t-165 -112.5t-196.5 -42q-104 0 -199.5 42t-167 112.5t-113.5 165 t-42 200.5zM313 1645q0 45 38 73.5t85 28.5t84 -28.5t37 -73.5q0 -47 -36 -75t-85 -28q-47 0 -85 27.5t-38 75.5zM709 1645q0 45 36.5 73.5t85.5 28.5q45 0 82 -28.5t37 -73.5q0 -47 -36.5 -75t-82.5 -28q-49 0 -85.5 27.5t-36.5 75.5z" />
<glyph unicode="&#xdd;" horiz-adv-x="1165" d="M29 1313q0 37 29.5 64.5t66.5 27.5q45 0 76 -41l377 -508l380 512q16 23 35 30t37 9q41 0 70.5 -28.5t29.5 -65.5t-20 -58l-442 -587v-580q0 -94 -95 -94q-90 0 -90 94v580l-434 587q-20 27 -20 58zM449 1509l188 252h254l-252 -252h-190z" />
<glyph unicode="&#xdf;" horiz-adv-x="1085" d="M154 88v911q0 88 33.5 162t90 127t129 83t152.5 30t151.5 -31t127 -85t87 -129t31.5 -163q0 -184 -145 -299q133 -127 133 -297q0 -84 -30.5 -156.5t-84 -126t-126 -85t-158.5 -31.5q-129 0 -129 90q0 92 129 92q43 0 83 16.5t68.5 46t46 68.5t17.5 86q0 43 -17.5 81 t-47 65.5t-68.5 44t-82 16.5q-88 0 -88 94t92 95q94 0 157.5 59t63.5 154q0 43 -16.5 81.5t-46 67.5t-67.5 45.5t-81 16.5t-83 -16.5t-70.5 -47.5t-48 -74t-17.5 -94v-897q0 -94 -92 -94q-94 0 -94 94z" />
<glyph unicode="&#xe0;" horiz-adv-x="954" d="M72 391q0 84 30.5 157t83 127t123 86t150.5 32q100 0 184 -91q0 45 20.5 67t69.5 22q94 0 94 -89v-614q0 -96 -88 -96q-41 0 -68.5 28.5t-27.5 67.5q-84 -90 -184 -90q-82 0 -152.5 29.5t-123 83t-82 125t-29.5 155.5zM262 393q0 -88 53.5 -149.5t141.5 -61.5 q86 0 134 61.5t48 149.5q0 92 -48 151.5t-134 59.5q-88 0 -141.5 -59.5t-53.5 -151.5zM285 1245h252l188 -252h-188z" />
<glyph unicode="&#xe1;" horiz-adv-x="956" d="M59 391q0 82 30 154.5t82 128t124 87.5t154 32q98 0 182 -91q0 45 21.5 67t70.5 22q94 0 94 -89v-614q0 -96 -90 -96q-39 0 -67.5 28.5t-28.5 67.5q-84 -90 -182 -90q-84 0 -155 30.5t-123 84t-82 125t-30 153.5zM252 393q0 -88 52 -149.5t140 -61.5q86 0 135.5 61.5 t49.5 149.5q0 92 -49.5 151.5t-135.5 59.5q-88 0 -140 -59.5t-52 -151.5zM334 993l188 252h254l-252 -252h-190z" />
<glyph unicode="&#xe2;" horiz-adv-x="999" d="M88 391q0 82 29.5 154.5t82 128t124 87.5t153.5 32q98 0 182 -91q0 45 21.5 67t71.5 22q94 0 94 -89v-614q0 -96 -90 -96q-39 0 -68 28.5t-29 67.5q-84 -90 -182 -90q-84 0 -154.5 30.5t-123 84t-82 125t-29.5 153.5zM217 1006l166 233h299l168 -233h-193l-127 147 l-122 -147h-191zM281 393q0 -88 52 -149.5t140 -61.5q86 0 135 61.5t49 149.5q0 92 -49 151.5t-135 59.5q-88 0 -140 -59.5t-52 -151.5z" />
<glyph unicode="&#xe3;" horiz-adv-x="1046" d="M111 391q0 82 29.5 154.5t81.5 128t124 87.5t154 32q98 0 182 -91q0 45 21.5 67t70.5 22q94 0 94 -89v-614q0 -96 -90 -96q-39 0 -67.5 28.5t-28.5 67.5q-84 -90 -182 -90q-84 0 -155 30.5t-123 84t-81.5 125t-29.5 153.5zM190 1020q8 227 209 227q35 0 88.5 -19.5 t107.5 -42t100 -42t65 -19.5q74 0 102 123h35q0 -100 -54.5 -165.5t-154.5 -65.5q-35 0 -88 19.5t-106.5 42t-98.5 42t-63 19.5q-47 0 -68.5 -24.5t-36.5 -94.5h-37zM303 393q0 -88 51.5 -149.5t143.5 -61.5q86 0 134 61.5t48 149.5q0 92 -48 151.5t-134 59.5 q-92 0 -143.5 -59.5t-51.5 -151.5z" />
<glyph unicode="&#xe4;" horiz-adv-x="1030" d="M100 391q0 82 30 154.5t82 128t123 87.5t152 32q100 0 185 -91q0 45 20.5 67t69.5 22q94 0 94 -89v-614q0 -96 -88 -96q-41 0 -68.5 28.5t-27.5 67.5q-84 -90 -185 -90q-84 0 -154.5 30.5t-121.5 83t-81 124t-30 155.5zM233 1128q0 45 38 74t85 29t84 -29t37 -74 q0 -47 -35.5 -75.5t-85.5 -28.5q-47 0 -85 28.5t-38 75.5zM291 393q0 -88 53 -149.5t141 -61.5q86 0 134.5 61.5t48.5 149.5q0 92 -48.5 151.5t-134.5 59.5q-88 0 -141 -59.5t-53 -151.5zM629 1128q0 45 36.5 74t86.5 29q45 0 81.5 -29t36.5 -74q0 -47 -36.5 -75.5 t-81.5 -28.5q-49 0 -86 28.5t-37 75.5z" />
<glyph unicode="&#xe5;" horiz-adv-x="970" d="M74 391q0 82 29.5 154.5t82 128t124 87.5t153.5 32q98 0 182 -91q0 45 21.5 67t70.5 22q94 0 94 -89v-614q0 -96 -90 -96q-39 0 -67.5 28.5t-28.5 67.5q-84 -90 -182 -90q-84 0 -154.5 30.5t-123 84t-82 125t-29.5 153.5zM266 393q0 -88 52.5 -149.5t140.5 -61.5 q86 0 135 61.5t49 149.5q0 92 -49 151.5t-135 59.5q-88 0 -140.5 -59.5t-52.5 -151.5zM311 1118q0 43 17.5 80t47.5 63.5t69.5 42t82.5 15.5t82 -15.5t70 -42t48 -63.5t17 -80q0 -41 -18 -77.5t-48 -63.5t-69 -42t-82 -15t-82.5 15t-69.5 42t-47.5 62.5t-17.5 78.5z M389 1118q0 -53 41 -90t98 -37q53 0 95.5 37t42.5 90q0 55 -42 91t-96 36q-57 0 -98 -35.5t-41 -91.5z" />
<glyph unicode="&#xe6;" horiz-adv-x="1581" d="M135 391q0 82 30 154.5t82 128t122.5 87.5t152.5 32q98 0 183 -91q0 45 21.5 67t70.5 22q70 0 88 -50q82 51 190 52q68 0 134.5 -28t120.5 -74t88 -105.5t34 -122.5q0 -92 -94 -92h-467v-25q16 -72 67.5 -119t116.5 -47q41 0 77 21.5t65.5 48t53 48t42.5 21.5 q37 0 64.5 -28.5t27.5 -67.5q0 -45 -32 -86t-81 -71.5t-107.5 -49t-109.5 -18.5q-106 0 -190 47q-16 -53 -82 -53q-41 0 -69.5 28.5t-28.5 67.5q-84 -90 -183 -90q-84 0 -154.5 30.5t-121.5 83t-81 124t-30 155.5zM326 393q0 -88 51 -149.5t143 -61.5q72 0 120 47t58 121v41 v21.5t2 21.5q-8 62 -47 109q-49 61 -133 61q-92 0 -143 -59.5t-51 -151.5zM950 557h260q-59 47 -135 47q-66 0 -125 -47z" />
<glyph unicode="&#xe7;" horiz-adv-x="841" d="M78 393q0 86 25.5 159t72.5 126t114.5 84t151.5 31q39 0 93.5 -14.5t102.5 -39t82 -59.5t34 -78q0 -37 -29 -69.5t-68 -32.5q-12 0 -33.5 16t-50 34.5t-62.5 35t-69 16.5q-86 0 -133 -58.5t-47 -150.5q0 -94 48 -149.5t126 -55.5q31 0 65 15.5t64.5 33t54 33t33.5 15.5 q41 0 68 -30t27 -67q0 -39 -28 -72.5t-69 -59t-90 -40t-92 -16.5l-27 -43q144 -33 144 -166q0 -45 -20.5 -82t-55.5 -63.5t-79 -42t-89 -15.5q-23 0 -48.5 2t-55.5 4v50q20 -4 30 -4h23q51 0 93 35.5t42 86.5q0 41 -29.5 63.5t-68.5 22.5q-14 0 -23 -2l96 154q-72 4 -131 36 t-102 85t-66.5 122.5t-23.5 149.5z" />
<glyph unicode="&#xe8;" horiz-adv-x="915" d="M94 391q0 86 29 160t80 127t120.5 84t149.5 31q66 0 133.5 -28t121.5 -74t88 -105.5t34 -122.5q0 -92 -94 -92h-473q16 -78 66 -134.5t124 -56.5q39 0 75 21.5t64.5 48t53 48t43.5 21.5q39 0 66.5 -28.5t27.5 -67.5q0 -41 -32 -82t-81 -72.5t-107.5 -51t-109.5 -19.5 q-82 0 -151.5 30.5t-119.5 84t-79 125t-29 153.5zM188 1245h252l189 -252h-189zM346 557h258q-57 47 -133 47q-66 0 -125 -47z" />
<glyph unicode="&#xe9;" horiz-adv-x="919" d="M63 391q0 86 29 160t79 128t119.5 84t151.5 30q66 0 132.5 -28t121 -74t89 -105.5t34.5 -122.5q0 -92 -94 -92h-473q16 -80 65.5 -135.5t124.5 -55.5q41 0 76 21.5t63.5 48t52 48t42.5 21.5q41 0 67.5 -28.5t26.5 -67.5q0 -41 -31.5 -81t-80 -72.5t-106.5 -52t-110 -19.5 q-84 0 -152.5 30.5t-119.5 84t-79 125t-28 153.5zM313 557h260q-59 47 -133 47q-68 0 -127 -47zM332 993l188 252h254l-252 -252h-190z" />
<glyph unicode="&#xea;" horiz-adv-x="956" d="M102 391q0 86 29 159t80 127t120.5 85t151.5 31q66 0 132.5 -28t121 -74t89 -105.5t34.5 -122.5q0 -92 -94 -92h-475q16 -78 66.5 -134.5t125.5 -56.5q41 0 76 21.5t63.5 48t52 48t42.5 21.5q39 0 66.5 -28.5t27.5 -67.5q0 -41 -31.5 -81t-80 -72.5t-106.5 -52 t-110 -19.5q-84 0 -153.5 30.5t-119.5 84t-79 125t-29 153.5zM168 1006l166 233h299l170 -233h-195l-125 147l-123 -147h-192zM354 557h260q-59 47 -135 47q-66 0 -125 -47z" />
<glyph unicode="&#xeb;" horiz-adv-x="991" d="M117 391q0 86 28.5 159t79.5 127t121 85t152 31q63 0 130.5 -28t121 -74t88 -105.5t34.5 -122.5q0 -92 -94 -92h-473q16 -78 66.5 -134.5t126.5 -56.5q41 0 75.5 21.5t63.5 48t52.5 48t41.5 21.5q39 0 66.5 -28.5t27.5 -67.5q0 -41 -31.5 -81t-79.5 -72.5t-106.5 -52 t-109.5 -19.5q-84 0 -154 30.5t-120 84t-78.5 125t-28.5 153.5zM188 1128q0 45 37 74t86 29q45 0 82 -29t37 -74q0 -47 -35 -75.5t-84 -28.5t-86 28.5t-37 75.5zM369 557h260q-59 47 -135 47q-66 0 -125 -47zM582 1128q0 45 37.5 74t85.5 29q47 0 83.5 -29t36.5 -74 q0 -47 -36.5 -75.5t-83.5 -28.5t-85 28.5t-38 75.5z" />
<glyph unicode="&#xec;" horiz-adv-x="542" d="M35 1245h250l192 -252h-192zM197 88v614q0 88 94 89q92 0 92 -89v-614q0 -94 -92 -94q-94 0 -94 94z" />
<glyph unicode="&#xed;" horiz-adv-x="552" d="M82 993l192 252h250l-250 -252h-192zM145 88v614q0 88 95 89q92 0 92 -89v-614q0 -94 -92 -94q-94 0 -95 94z" />
<glyph unicode="&#xee;" horiz-adv-x="741" d="M53 1006l170 233h299l168 -233h-192l-129 147l-121 -147h-195zM268 88v614q0 88 94 89q92 0 93 -89v-614q0 -94 -93 -94q-94 0 -94 94z" />
<glyph unicode="&#xef;" horiz-adv-x="776" d="M78 1128q0 45 34.5 74t84.5 29q45 0 83.5 -29t38.5 -74q0 -47 -36.5 -75.5t-85.5 -28.5q-45 0 -82 28.5t-37 75.5zM283 88v614q0 88 94 89q92 0 92 -89v-614q0 -94 -92 -94q-94 0 -94 94zM469 1128q0 45 37 74t86 29q45 0 82 -29t37 -74q0 -47 -37 -75.5t-82 -28.5 q-49 0 -86 28.5t-37 75.5z" />
<glyph unicode="&#xf1;" horiz-adv-x="1058" d="M145 88v643q0 88 93 88q49 0 69.5 -21.5t20.5 -66.5q78 90 182 90q82 0 152.5 -31.5t122 -86t80 -127t28.5 -154.5v-334q0 -47 -25.5 -70.5t-68.5 -23.5q-90 0 -90 94v334q0 92 -56.5 151.5t-142.5 59.5t-134 -61.5t-48 -149.5v-334q0 -96 -90 -96q-92 0 -93 96z M201 1020q8 227 207 227q35 0 88 -19.5t107 -42t100.5 -42t64.5 -19.5q78 0 102 123h35q0 -100 -54 -165.5t-155 -65.5q-35 0 -88 19.5t-106 42t-98.5 42t-63.5 19.5q-47 0 -69.5 -27t-32.5 -92h-37z" />
<glyph unicode="&#xf2;" horiz-adv-x="919" d="M88 393q0 82 26.5 155t74 127t115 86t151.5 32t154.5 -32t121.5 -86t80 -127t29 -155t-29 -153.5t-79 -126t-120.5 -85t-156.5 -30.5q-84 0 -151.5 29.5t-115 83t-74 125t-26.5 157.5zM223 1245h250l189 -252h-189zM274 393q0 -88 48.5 -150.5t134.5 -62.5t140 62.5 t54 150.5q0 92 -54 153.5t-140 61.5t-134.5 -61.5t-48.5 -153.5z" />
<glyph unicode="&#xf3;" horiz-adv-x="919" d="M78 393q0 82 25.5 155t73.5 127t114.5 86t150.5 32t155 -32t122 -86t79.5 -127t28.5 -155q0 -80 -27.5 -152.5t-77.5 -126t-121 -85t-159 -31.5q-84 0 -150.5 29.5t-114.5 83t-73.5 125t-25.5 157.5zM262 393q0 -88 48 -150.5t134 -62.5t140.5 62.5t54.5 150.5 q0 92 -54.5 153.5t-140.5 61.5t-134 -61.5t-48 -153.5zM270 993l189 252h254l-250 -252h-193z" />
<glyph unicode="&#xf4;" horiz-adv-x="958" d="M100 393q0 80 26 152.5t73 128t114.5 87.5t151.5 32t154.5 -32t122 -86t80 -127t28.5 -155q0 -80 -27.5 -152.5t-78 -126t-121 -85t-158.5 -31.5q-84 0 -150.5 29.5t-114.5 83t-74 125t-26 157.5zM176 1006l166 233h301l168 -233h-195l-124 147l-123 -147h-193zM285 393 q0 -88 49 -150.5t135 -62.5t139.5 62.5t53.5 150.5q0 92 -53.5 153.5t-139.5 61.5t-135 -61.5t-49 -153.5z" />
<glyph unicode="&#xf5;" horiz-adv-x="1001" d="M123 393q0 80 25.5 152.5t72.5 128t114.5 87.5t151.5 32t155 -32t122 -85t79.5 -127t28.5 -156t-27.5 -153.5t-77.5 -126t-122 -85t-158 -30.5q-84 0 -150.5 29.5t-114.5 83t-73.5 125t-25.5 157.5zM152 1020q8 227 208 227q33 0 86.5 -19.5t107.5 -42t100 -42t65 -19.5 q78 0 102 123h35q0 -100 -54 -165.5t-155 -65.5q-35 0 -88 19.5t-106.5 42t-98.5 42t-63 19.5q-43 0 -65.5 -24.5t-37.5 -94.5h-36zM309 393q0 -88 48.5 -150.5t134.5 -62.5t139 62.5t53 150.5q0 92 -53 153.5t-139 61.5t-134.5 -61.5t-48.5 -153.5z" />
<glyph unicode="&#xf6;" horiz-adv-x="995" d="M117 393q0 82 26.5 155t73.5 127t114.5 86t151.5 32t155 -32t122 -86t79.5 -127t28.5 -155t-28.5 -153.5t-78.5 -126t-121 -85t-157 -30.5q-84 0 -151.5 29.5t-114.5 83t-73.5 125t-26.5 157.5zM201 1128q0 45 36.5 74t84.5 29q47 0 83.5 -29t36.5 -74q0 -47 -35.5 -75.5 t-84.5 -28.5q-47 0 -84 28.5t-37 75.5zM303 393q0 -88 48 -150.5t134 -62.5t140.5 62.5t54.5 150.5q0 92 -54.5 153.5t-140.5 61.5t-134 -61.5t-48 -153.5zM594 1128q0 45 37 74t86 29q45 0 82 -29t37 -74q0 -47 -37 -75.5t-82 -28.5q-49 0 -86 28.5t-37 75.5z" />
<glyph unicode="&#xf7;" horiz-adv-x="956" d="M31 868q0 94 90 95h700q92 -1 92 -95t-92 -94h-700q-90 0 -90 94zM354 506q0 59 41 102t99 43q59 0 102 -43t43 -102q0 -57 -43 -100.5t-98 -43.5q-61 0 -102.5 43.5t-41.5 100.5zM354 1235q0 57 41 102t99 45q59 0 102 -43t43 -104q0 -55 -43 -98t-98 -43 q-61 0 -102.5 41t-41.5 100z" />
<glyph unicode="&#xf8;" horiz-adv-x="995" d="M123 393q0 86 25.5 159t73.5 126t116 84t154 31q88 0 163 -35l21 30q18 25 47 25q61 0 61 -53q0 -20 -8 -29l-26 -39l16 -16q106 -115 106 -283q0 -82 -27.5 -153.5t-77.5 -126t-119.5 -85t-155.5 -30.5q-59 0 -102.5 13.5t-90.5 35.5l-2 -4q-14 -27 -49 -27 q-59 0 -60 52q0 14 9 28l16 23q-43 53 -66.5 122.5t-23.5 151.5zM309 393q0 -61 21 -104l215 311q-22 8 -53 8q-86 0 -134.5 -61.5t-48.5 -153.5zM406 199q37 -18 86 -19q88 0 142 62.5t54 150.5q0 84 -47 144z" />
<glyph unicode="&#xf9;" horiz-adv-x="962" d="M88 393v309q0 88 94 89q94 0 94 -89v-309q0 -88 54.5 -150.5t142.5 -62.5q86 0 135 62.5t49 150.5v309q0 88 91 89q94 0 94 -89v-614q0 -94 -86 -94q-39 0 -69 27.5t-30 66.5q-84 -90 -184 -90q-86 0 -156.5 30.5t-121 85t-79 126t-28.5 153.5zM276 1245h252l189 -252 h-189z" />
<glyph unicode="&#xfa;" horiz-adv-x="962" d="M92 393v309q0 88 94 89q94 0 95 -89v-309q0 -88 54 -150.5t142 -62.5q82 0 132 62.5t50 150.5v309q0 88 93 89q94 0 94 -89v-614q0 -94 -86 -94q-41 0 -71 27.5t-30 66.5q-84 -90 -182 -90q-88 0 -158.5 31.5t-121 85t-78 126t-27.5 152.5zM254 993l188 252h254 l-252 -252h-190z" />
<glyph unicode="&#xfb;" horiz-adv-x="1005" d="M111 393v309q0 88 94 89q94 0 94 -89v-309q0 -88 53.5 -150.5t145.5 -62.5q82 0 132 62.5t50 150.5v309q0 88 90 89q94 0 94 -89v-614q0 -94 -86 -94q-39 0 -68.5 27.5t-29.5 66.5q-84 -90 -182 -90q-86 0 -158 30.5t-123 85t-78.5 126t-27.5 153.5zM186 1006l164 233 h301l168 -233h-194l-125 147l-123 -147h-191z" />
<glyph unicode="&#xfc;" horiz-adv-x="1036" d="M125 393v309q0 88 94 89q94 0 94 -89v-309q0 -88 54.5 -150.5t142.5 -62.5q86 0 135 62.5t49 150.5v309q0 88 90 89q94 0 95 -89v-614q0 -94 -86 -94q-39 0 -69 27.5t-30 66.5q-84 -90 -184 -90q-86 0 -156.5 30.5t-121 85t-79 126t-28.5 153.5zM205 1128q0 45 38 74 t85 29t84 -29t37 -74q0 -47 -36 -75.5t-85 -28.5q-47 0 -85 28.5t-38 75.5zM600 1128q0 45 37 74t86 29q45 0 82 -29t37 -74q0 -47 -37 -75.5t-82 -28.5q-49 0 -86 28.5t-37 75.5z" />
<glyph unicode="&#xfd;" horiz-adv-x="897" d="M66 702q0 37 29.5 64t70.5 27q53 0 82 -54l231 -442l217 442q25 53 82 54q39 0 69 -27t30 -64q0 -25 -9 -43l-608 -1230q-14 -27 -34.5 -39.5t-43.5 -12.5q-37 0 -68.5 29t-31.5 66q0 18 12 41l283 575l-299 571q-12 20 -12 43zM313 993l189 252h254l-250 -252h-193z" />
<glyph unicode="&#xff;" horiz-adv-x="921" d="M88 702q0 37 29.5 64t70.5 27q53 0 82 -54l232 -442l217 442q25 53 84 54q37 0 66.5 -27t29.5 -64q0 -25 -8 -43l-608 -1230q-14 -27 -35 -39.5t-43 -12.5q-37 0 -68 29t-31 66q0 16 11 41l282 575l-299 571q-12 20 -12 43zM168 1128q0 45 37 74t86 29q45 0 83 -29 t38 -74q0 -47 -36 -75.5t-85 -28.5t-86 28.5t-37 75.5zM563 1128q0 45 37 74t84 29t84 -29t37 -74q0 -47 -37 -75.5t-84 -28.5t-84 28.5t-37 75.5z" />
<glyph unicode="&#x152;" horiz-adv-x="2195" d="M129 709q0 129 51 256t139.5 226t204 160.5t244.5 61.5q133 0 261 -64.5t216 -195.5v158q0 90 94 90h625q94 0 94 -90q0 -94 -94 -94h-530v-424h401q94 0 94 -95q0 -94 -94 -94h-401v-424h530q94 0 94 -92q0 -90 -94 -90h-625q-94 0 -94 90v164l-22 -27 q-195 -225 -455 -225q-131 0 -246.5 60.5t-203 159.5t-138.5 227t-51 262zM305 709q0 -104 38 -200.5t101.5 -170.5t146.5 -118t175 -44q88 0 172 43t149.5 117t104.5 170.5t39 202.5q0 92 -37 186t-100.5 169t-148.5 123t-179 48t-178 -47t-146.5 -123t-99.5 -170t-37 -186 z" />
<glyph unicode="&#x153;" horiz-adv-x="1581" d="M139 393q0 86 25.5 159t74 126t117 84t152.5 31q92 0 156.5 -33t128.5 -96q18 33 52 57t72.5 40.5t80.5 24t77 7.5q66 0 133.5 -28t121.5 -74t88 -105.5t34 -122.5q0 -92 -94 -92h-467l-2 -25q18 -78 69.5 -122t116.5 -44q39 0 75 21.5t64.5 48t53 48t43.5 21.5 q39 0 66.5 -28.5t27.5 -67.5q0 -43 -32 -83t-81 -71.5t-107.5 -51t-109.5 -19.5q-92 0 -158.5 32.5t-123.5 92.5q-18 -35 -53 -58.5t-75 -38t-81 -21.5t-76 -7q-84 0 -152.5 29.5t-117 83t-74 125t-25.5 157.5zM326 393q0 -88 48 -150.5t134 -62.5q45 0 82 19.5t63.5 50.5 t41 69.5t14.5 79.5q0 43 -16.5 81t-44 66.5t-64.5 45t-76 16.5q-86 0 -134 -61.5t-48 -153.5zM948 557h260q-59 47 -135 47q-66 0 -125 -47z" />
<glyph unicode="&#x178;" horiz-adv-x="1173" d="M35 1313q0 37 29.5 64.5t66.5 27.5q41 0 72 -41l379 -508l381 512q31 39 73 39q37 0 69 -28.5t32 -65.5t-21 -58l-442 -587v-580q0 -94 -94 -94t-95 94v580l-432 587q-18 27 -18 58zM297 1645q0 45 37 73.5t86 28.5q45 0 82 -28.5t37 -73.5q0 -47 -35 -75t-84 -28 t-86 27.5t-37 75.5zM690 1645q0 45 38 73.5t85 28.5t84 -28.5t37 -73.5q0 -47 -37 -75t-84 -28t-85 27.5t-38 75.5z" />
<glyph unicode="&#x2c6;" horiz-adv-x="856" d="M111 1522l165 233h302l167 -233h-194l-125 147l-123 -147h-192z" />
<glyph unicode="&#x2dc;" horiz-adv-x="980" d="M137 1536q8 227 209 227q35 0 88 -19.5t107.5 -42t99.5 -42t64 -19.5q78 0 102 123h35q0 -98 -54.5 -164.5t-154.5 -66.5q-33 0 -86 19.5t-106.5 42t-99.5 42t-65 19.5q-43 0 -65.5 -23.5t-36.5 -95.5h-37z" />
<glyph unicode="&#x2000;" horiz-adv-x="903" />
<glyph unicode="&#x2001;" horiz-adv-x="1806" />
<glyph unicode="&#x2002;" horiz-adv-x="903" />
<glyph unicode="&#x2003;" horiz-adv-x="1806" />
<glyph unicode="&#x2004;" horiz-adv-x="602" />
<glyph unicode="&#x2005;" horiz-adv-x="451" />
<glyph unicode="&#x2006;" horiz-adv-x="301" />
<glyph unicode="&#x2007;" horiz-adv-x="301" />
<glyph unicode="&#x2008;" horiz-adv-x="225" />
<glyph unicode="&#x2009;" horiz-adv-x="361" />
<glyph unicode="&#x200a;" horiz-adv-x="100" />
<glyph unicode="&#x2010;" d="M158 698q0 94 88 95h702q90 -1 90 -95t-90 -94h-702q-88 0 -88 94z" />
<glyph unicode="&#x2011;" d="M158 698q0 94 88 95h702q90 -1 90 -95t-90 -94h-702q-88 0 -88 94z" />
<glyph unicode="&#x2012;" d="M158 698q0 94 88 95h702q90 -1 90 -95t-90 -94h-702q-88 0 -88 94z" />
<glyph unicode="&#x2013;" horiz-adv-x="1342" d="M158 698q0 94 102 95h817q105 -1 105 -95t-105 -94h-817q-102 0 -102 94z" />
<glyph unicode="&#x2014;" horiz-adv-x="2366" d="M158 698q0 94 205 95h1634q209 -1 209 -95t-209 -94h-1634q-205 0 -205 94z" />
<glyph unicode="&#x2018;" horiz-adv-x="530" d="M109 1503v27q0 66 34.5 112t102.5 46q59 0 99 -43t40 -101q0 -12 -4 -29.5t-10 -37t-10.5 -37t-4.5 -29.5q0 -14 16.5 -26.5t16.5 -34.5q0 -51 -76 -52q-37 0 -73.5 17.5t-66.5 47.5t-47 66.5t-17 73.5z" />
<glyph unicode="&#x2019;" horiz-adv-x="528" d="M139 1350q0 23 14.5 35t14.5 26q0 12 -4 29.5t-10.5 37t-10.5 37t-4 29.5q0 57 42 100.5t100 43.5q66 0 102.5 -46.5t36.5 -111.5v-27q0 -37 -18.5 -72.5t-48 -65.5t-66.5 -48.5t-72 -18.5q-76 0 -76 52z" />
<glyph unicode="&#x201a;" horiz-adv-x="528" d="M139 -59q0 20 14.5 33.5t14.5 25.5t-4 29.5t-10.5 37t-10.5 38t-4 30.5q0 55 42 98t100 43q66 0 102.5 -45t36.5 -110v-27q0 -37 -18.5 -73.5t-47 -65.5t-65.5 -47.5t-74 -18.5q-76 0 -76 52z" />
<glyph unicode="&#x201c;" horiz-adv-x="892" d="M137 1503v27q0 66 35 112t102 46q59 0 99.5 -43t40.5 -101q0 -12 -4 -29.5t-10.5 -37t-10.5 -37t-4 -29.5q0 -14 15.5 -26.5t15.5 -34.5q0 -51 -74 -52q-37 0 -74 17.5t-66.5 47.5t-47 66.5t-17.5 73.5zM459 1503v27q0 66 34.5 112t102.5 46q61 0 101 -43t40 -101 q0 -12 -4 -29.5t-10 -37t-10 -37t-4 -29.5q0 -14 15 -26.5t15 -34.5q0 -51 -73 -52q-39 0 -76 17.5t-66.5 47.5t-47 66.5t-17.5 73.5z" />
<glyph unicode="&#x201d;" horiz-adv-x="925" d="M154 1350q0 23 14 35t14 26q0 12 -4 29.5t-10 37t-10 37t-4 29.5q0 57 42 100.5t99 43.5q66 0 102.5 -46.5t36.5 -111.5v-27q-2 -37 -20.5 -73.5t-47 -65.5t-65.5 -47.5t-74 -18.5q-74 0 -73 52zM506 1350q0 27 14.5 37t14.5 24q0 12 -4.5 29.5t-10.5 37t-10 37t-4 29.5 q0 57 41 100.5t98 43.5q66 0 102.5 -46.5t36.5 -111.5v-27q0 -37 -18 -73.5t-48 -66.5t-67 -47.5t-71 -17.5q-74 0 -74 52z" />
<glyph unicode="&#x201e;" horiz-adv-x="925" d="M154 -82q0 23 14 34t14 25q0 12 -4 30t-10 37t-10 36.5t-4 30.5q0 57 42 100t99 43q66 0 102.5 -46t36.5 -112v-24q-2 -37 -20.5 -74t-47 -66.5t-65.5 -48t-74 -18.5q-74 0 -73 53zM506 -82q0 23 14.5 34t14.5 25q0 12 -4.5 30t-10.5 37t-10 36.5t-4 30.5q0 57 41 100 t98 43q66 0 102.5 -46t36.5 -112v-24q-2 -39 -20.5 -76t-47 -66.5t-64.5 -47t-72 -17.5q-74 0 -74 53z" />
<glyph unicode="&#x2022;" horiz-adv-x="1071" d="M43 1104l354 35l131 331l144 -329l352 -19l-264 -237l88 -346l-309 180l-299 -191l77 349z" />
<glyph unicode="&#x2026;" horiz-adv-x="3231" d="M535 0zM535 135q0 59 41 102.5t98 43.5q59 0 102.5 -43.5t43.5 -102.5q0 -57 -43.5 -100t-100.5 -43q-59 0 -100 43t-41 100zM1475 135q0 59 41 102.5t98 43.5q59 0 102.5 -43.5t43.5 -102.5q0 -57 -43.5 -100t-100.5 -43q-59 0 -100 43t-41 100zM2413 135q0 59 41 102.5 t98 43.5q59 0 102.5 -43.5t43.5 -102.5q0 -57 -43.5 -100t-100.5 -43q-59 0 -100 43t-41 100z" />
<glyph unicode="&#x202f;" horiz-adv-x="361" />
<glyph unicode="&#x2039;" horiz-adv-x="591" d="M106 696v152l400 209v-160l-264 -121l264 -123v-153z" />
<glyph unicode="&#x203a;" horiz-adv-x="591" d="M106 500v157l263 125l-263 119v156l400 -197v-155z" />
<glyph unicode="&#x205f;" horiz-adv-x="451" />
<glyph unicode="&#x2122;" horiz-adv-x="1441" d="M111 1245v137h512v-137h-179v-573h-149v573h-184zM684 674v710h176l133 -368l135 368h168v-710h-145v391l-156 -397l-168 411v-405h-143z" />
<glyph unicode="&#x25fc;" horiz-adv-x="788" d="M0 0v788h788v-788h-788z" />
</font>
</defs>
</svg>
